<svg version="1.1" id="Layer_1" xmlns="http://www.w3.org/2000/svg" xmlns:xlink="http://www.w3.org/1999/xlink" x="0px" y="0px"
	 width="100%" viewBox="0 0 720 720" enable-background="new 0 0 720 720" xml:space="preserve">
<path fill="#000400" opacity="1.000000" stroke="none" 
	d="
M398.000000,721.000000 
	C265.333344,721.000000 133.166672,721.000000 1.000000,721.000000 
	C1.000000,481.000000 1.000000,241.000000 1.000000,1.000000 
	C241.000000,1.000000 481.000000,1.000000 721.000000,1.000000 
	C721.000000,241.000000 721.000000,481.000000 721.000000,721.000000 
	C613.500000,721.000000 506.000000,721.000000 398.000000,721.000000 
M370.646271,386.028351 
	C370.782349,385.688934 370.918427,385.349487 371.372040,384.440186 
	C373.073395,379.621948 374.774780,374.803741 376.999207,369.576050 
	C377.411804,368.836700 377.824402,368.097351 378.678284,366.861298 
	C379.856964,364.634735 381.035675,362.408203 382.766724,359.804840 
	C383.806274,357.191620 384.845856,354.578369 386.107971,351.617340 
	C386.107971,351.617340 386.132812,351.205109 386.860046,350.938660 
	C389.291718,349.992859 391.723419,349.047058 394.795135,347.995453 
	C395.147919,347.754639 395.500702,347.513855 396.321594,347.456573 
	C396.643707,347.391510 396.965790,347.326447 397.659576,348.009003 
	C396.816193,351.079102 395.972809,354.149231 394.954498,357.724518 
	C394.628632,358.147614 394.302734,358.570709 393.296631,359.137787 
	C390.960907,365.239685 388.625183,371.341553 386.075378,378.077637 
	C381.101227,389.040619 376.065796,399.976318 371.175079,410.976379 
	C368.043793,418.019196 364.976807,425.098419 362.164124,432.272339 
	C360.214783,437.244202 358.747833,442.405243 357.065369,447.481750 
	C357.338623,447.652740 357.611877,447.823730 357.885132,447.994720 
	C362.579651,442.771240 367.274170,437.547791 373.014404,432.101562 
	C373.636169,432.635712 374.846802,433.256195 374.783203,433.689819 
	C374.397522,436.319061 373.721191,438.905670 373.079163,441.788330 
	C374.812836,439.039276 376.403351,436.517242 378.426544,433.509796 
	C378.956665,432.342194 379.486786,431.174591 380.021973,430.154663 
	C380.021973,430.154663 380.168549,430.172852 380.567810,429.667206 
	C381.027802,428.767731 381.487793,427.868256 382.002289,426.995148 
	C382.002289,426.995148 381.962433,426.949280 382.709381,426.532593 
	C385.282318,426.121918 387.855255,425.711243 391.418854,425.142487 
	C390.201691,427.093048 389.601624,428.054718 389.606262,428.047272 
	C390.361298,426.667053 391.651306,424.308899 393.589752,421.660431 
	C396.573578,415.404175 398.411865,408.124847 402.844086,403.162140 
	C407.877502,397.526215 410.726837,390.940460 414.341858,384.732605 
	C420.986908,373.321472 426.769806,361.410522 433.019287,349.765472 
	C435.115997,345.858459 437.539001,342.126526 440.464264,337.222656 
	C440.892029,342.728546 441.317596,346.778656 441.460358,350.838684 
	C441.508545,352.209106 440.808716,353.598114 440.508484,354.991089 
	C440.275208,356.073425 439.876953,357.202057 439.989075,358.263977 
	C440.801147,365.955139 441.528290,373.664001 442.677490,381.307861 
	C443.518188,386.900055 444.959961,392.401855 446.019531,398.613800 
	C447.920929,402.222687 447.920929,402.222687 450.802948,399.804688 
	C451.306213,399.817841 451.809509,399.830963 452.380829,400.449890 
	C452.927826,400.952759 453.474854,401.455627 454.391998,402.328827 
	C454.686432,402.514709 454.980835,402.700562 455.325806,403.524841 
	C455.848480,404.074310 456.371155,404.623810 457.713135,405.251740 
	C458.498718,405.016632 459.284271,404.781494 460.497192,405.080505 
	C465.014008,406.943970 469.932159,405.956848 471.804749,402.127472 
	C473.326782,398.223724 474.848816,394.319977 476.932892,390.052917 
	C477.870087,388.000458 478.807251,385.947998 480.145844,383.329224 
	C482.446655,378.758240 485.005798,374.293640 486.948456,369.575195 
	C488.059906,366.875671 488.457947,363.465118 489.375427,361.049713 
	C491.383606,355.762848 495.838531,351.405365 498.744568,347.421661 
	C498.426514,345.063477 497.403198,342.764893 498.119934,341.887054 
	C501.464386,337.791016 504.017151,333.398499 506.188599,328.551300 
	C508.061005,324.371704 511.886139,321.071136 513.785278,316.898315 
	C516.933228,309.981537 519.177307,302.657013 521.903809,295.543274 
	C523.221252,292.106049 524.769897,288.757446 526.457642,284.796448 
	C523.607910,286.088318 521.907227,286.859283 520.229065,286.932190 
	C521.195801,285.559326 522.166199,284.189087 523.128235,282.812958 
	C524.427673,280.954193 525.720703,279.090881 527.016418,277.229523 
	C526.540466,276.919647 526.064453,276.609772 525.588440,276.299927 
	C524.606018,277.733917 523.623596,279.167908 522.580383,280.690643 
	C520.786011,278.554169 519.165527,276.624817 517.800171,274.059418 
	C517.987976,273.405121 518.175842,272.750854 518.868469,271.748779 
	C519.473145,268.152557 520.077820,264.556335 521.040283,260.259277 
	C520.957031,259.234619 520.873840,258.209991 520.665283,255.642975 
	C498.248596,284.170044 482.414246,314.909088 466.097931,346.416351 
	C465.315552,338.041931 464.530884,330.404785 463.909729,322.754395 
	C463.410858,316.610504 461.943268,310.226990 463.066467,304.363770 
	C464.085968,299.041473 462.503387,296.078674 458.945099,293.269867 
	C455.654816,290.672668 452.651367,286.709839 447.501923,290.337830 
	C446.840973,288.679504 446.334595,287.408997 446.212067,287.101593 
	C439.602539,285.198486 439.981598,297.087769 432.045135,293.602325 
	C431.923065,293.548706 431.290222,294.530182 430.970917,295.072815 
	C426.296112,303.017731 421.686188,311.001495 416.934052,318.899719 
	C415.683594,320.978027 414.313934,324.027191 412.459045,324.496552 
	C407.614655,325.722412 402.471436,325.767395 397.238953,326.304688 
	C398.866486,320.039276 400.301331,314.515747 402.099365,308.445099 
	C402.412567,307.637329 402.725800,306.829590 402.992279,306.023865 
	C402.992279,306.023865 403.030792,306.050995 403.676117,305.805939 
	C408.527252,297.515289 408.315582,289.251038 403.601959,281.101837 
	C402.013184,281.624237 400.431763,282.144196 398.089905,282.914185 
	C399.843964,273.342133 401.401733,264.841400 402.959473,256.340668 
	C402.685760,256.202179 402.412048,256.063660 402.138306,255.925140 
	C399.919922,259.074432 397.701508,262.223694 395.414459,265.492432 
	C395.414459,265.492432 395.337036,265.606354 394.841034,265.941406 
	C394.267578,266.978912 393.694122,268.016388 393.036591,268.823364 
	C393.036591,268.823364 392.794586,268.863861 392.138275,269.003082 
	C391.502777,270.414276 390.867279,271.825470 389.834717,273.786713 
	C388.624664,275.859253 387.414612,277.931793 385.849182,280.469086 
	C385.510162,280.944489 385.171173,281.419891 384.180786,282.074036 
	C382.463379,286.050934 380.745941,290.027832 378.996796,294.717499 
	C377.562408,296.756744 376.128021,298.795959 374.064423,301.068451 
	C373.435028,302.769073 372.805634,304.469696 371.772461,306.752899 
	C371.291534,308.076904 370.810608,309.400909 369.822968,311.022278 
	C369.108856,311.954712 368.394745,312.887146 367.027863,314.006042 
	C365.709320,317.671783 364.390778,321.337494 363.015747,325.644714 
	C362.673065,326.425934 362.330383,327.207153 361.407043,328.170715 
	C360.962524,328.810547 360.518036,329.450409 359.375946,330.561981 
	C355.031372,331.180145 350.686829,331.798340 345.433929,332.355377 
	C340.420502,332.707703 335.407104,333.059998 329.967834,332.983978 
	C329.816711,332.850922 329.665588,332.717896 329.609436,331.867310 
	C331.741364,327.244110 333.873291,322.620941 336.164520,317.367584 
	C336.488892,316.603973 336.813232,315.840332 337.446045,314.721100 
	C337.694336,314.509827 337.854126,314.245117 337.998779,314.000000 
	C337.998779,314.000000 337.928009,313.925262 338.572632,313.850586 
	C340.627899,311.413666 341.245239,309.074890 337.910034,306.195465 
	C337.609436,305.456970 337.308838,304.718445 337.635864,303.472748 
	C338.427643,300.981232 339.219391,298.489746 340.412903,295.526550 
	C340.093872,294.274689 339.774841,293.022858 339.126862,291.171783 
	C338.009003,289.857208 336.891174,288.542664 335.868683,286.520996 
	C335.029327,285.884186 334.068665,284.588715 333.370331,284.717407 
	C328.836060,285.552795 324.358795,286.697906 319.534393,288.130615 
	C319.334961,288.405243 319.135498,288.679901 318.267700,289.085297 
	C317.149353,291.345459 316.031036,293.605621 314.384155,296.223785 
	C313.334106,296.896240 312.284058,297.568665 310.526093,298.228027 
	C309.681335,300.482361 308.836578,302.736725 307.844116,305.470032 
	C307.861420,305.636200 307.878754,305.802399 307.349396,306.241180 
	C306.854034,307.131134 306.358704,308.021088 305.364319,308.981598 
	C305.188660,309.653961 305.013000,310.326355 304.781525,311.502869 
	C304.820679,311.667358 304.859802,311.831848 304.490936,312.232788 
	C304.284729,312.472839 304.049988,312.680664 303.102173,312.927643 
	C301.893219,315.743378 300.684235,318.559113 299.243378,322.019135 
	C298.451843,323.650085 297.660278,325.281006 296.200897,327.047638 
	C295.590332,328.477356 294.979797,329.907074 294.208984,331.682404 
	C294.208984,331.682404 293.979462,331.986481 293.303253,332.132202 
	C292.968048,333.181946 292.632843,334.231659 292.044952,335.904846 
	C291.702942,336.950958 291.360931,337.997070 290.487335,339.322388 
	C290.297882,339.869537 290.108429,340.416656 289.487946,341.173523 
	C289.292419,341.426544 289.108276,341.687592 288.185852,342.162537 
	C285.767273,343.071167 283.348724,343.979767 280.292053,344.985107 
	C279.861969,344.993622 279.431915,345.002167 278.647766,344.687378 
	C278.031189,344.993988 277.414612,345.300629 276.093445,345.754517 
	C275.398163,345.898254 274.702911,346.041992 273.357635,346.094421 
	C272.585236,346.436768 271.812836,346.779114 270.353699,347.052460 
	C269.904419,347.150635 269.455139,347.248840 268.374817,347.100067 
	C267.952667,345.054230 267.530518,343.008362 267.070129,340.280670 
	C267.415924,339.254486 267.761688,338.228271 268.859741,337.135803 
	C269.659607,336.994354 270.963226,337.107697 271.183136,336.672974 
	C274.065186,330.974640 276.832336,325.216248 279.473175,319.402466 
	C279.644623,319.024994 278.548798,318.071930 278.734833,316.883881 
	C281.342926,311.923676 283.979462,306.978088 286.539154,301.993042 
	C287.182129,300.740753 288.051147,299.341614 287.995789,298.044983 
	C287.853271,294.708008 287.251129,291.390656 287.032379,287.389221 
	C285.136658,281.957245 285.575867,276.638763 287.730652,271.221649 
	C286.223541,273.587585 284.773865,275.863373 282.736633,278.835327 
	C281.692291,279.600037 280.647949,280.364746 279.031281,280.304199 
	C278.639984,279.636963 277.873413,278.943512 277.917969,278.306763 
	C278.220123,273.986420 280.305664,270.248505 279.217407,265.199066 
	C278.518005,261.953705 278.270721,259.454712 275.759949,257.371063 
	C274.902893,258.651764 274.078644,259.883484 272.872589,261.560883 
	C272.554443,262.006195 272.236298,262.451508 271.689331,263.284973 
	C271.584412,263.567902 271.451538,263.837067 270.920258,264.319366 
	C270.920258,264.319366 270.787933,264.733154 270.217163,265.045593 
	C269.608215,266.413971 268.999237,267.782379 267.957703,269.718933 
	C260.536102,284.501312 252.775436,299.125366 245.780945,314.107147 
	C237.514908,331.812500 229.783890,349.772278 222.062607,367.725708 
	C216.567688,380.502502 211.299316,393.383911 206.261948,406.347656 
	C203.135788,414.392944 200.630249,422.679352 197.215790,431.169769 
	C197.148392,432.049713 197.080978,432.929657 196.915619,435.088318 
	C197.862946,433.224701 198.232559,432.497620 199.221802,431.367157 
	C200.815613,429.064850 202.064682,425.233063 204.075287,424.779846 
	C208.210373,423.847809 209.195602,420.762421 211.824890,418.351837 
	C210.741913,422.188263 209.658936,426.024658 208.156967,431.345306 
	C210.337906,429.710907 211.815765,428.980286 212.756393,427.815735 
	C214.427887,425.746277 215.773758,423.413818 217.634857,421.016296 
	C217.634857,421.016296 217.867920,420.669922 218.594589,420.504639 
	C220.498184,420.240753 223.493942,424.307068 224.657303,418.739532 
	C225.759567,417.896576 226.861847,417.053650 228.172012,416.859192 
	C228.620102,417.645416 229.076889,418.427063 229.499832,419.226624 
	C229.533661,419.290558 229.333969,419.477997 229.242813,419.608063 
	C229.276581,419.608063 229.310349,419.608063 229.511398,419.608063 
	C230.022110,417.678864 230.543610,415.708862 231.559357,413.203918 
	C232.037201,412.132812 232.515060,411.061676 233.237122,409.645172 
	C233.368362,409.395447 233.496292,409.144073 234.048599,408.662445 
	C234.048599,408.662445 234.148285,408.187897 234.671280,407.679504 
	C236.217102,405.855530 237.938278,404.148712 239.257599,402.173431 
	C240.485016,400.335785 241.284332,398.212158 242.787231,395.754486 
	C242.959152,394.621338 243.131073,393.488190 243.870956,392.002808 
	C248.316620,383.731842 252.762268,375.460876 257.799530,366.615448 
	C259.154968,366.074219 260.505646,365.519958 261.877106,365.023010 
	C261.962646,364.992004 262.210876,365.410004 262.396942,365.635468 
	C261.579285,366.243011 260.764893,366.848114 259.950531,367.453217 
	C260.052856,367.859741 260.155182,368.266266 260.257507,368.672821 
	C262.229156,368.241211 264.200836,367.809631 266.775787,367.244843 
	C267.186523,367.215729 267.597229,367.186615 268.617004,367.609406 
	C270.151031,367.695923 271.685028,367.782440 273.281586,367.872498 
	C272.332916,371.395874 271.517548,374.424225 270.473022,378.055847 
	C270.214722,378.647095 269.956451,379.238373 269.096344,380.022400 
	C268.419525,382.016205 267.742676,384.009979 267.051025,386.785553 
	C266.863831,387.804596 266.676636,388.823608 266.154205,390.110382 
	C266.068176,390.383179 265.980103,390.655304 265.311768,391.190460 
	C265.020874,391.919342 264.729980,392.648193 264.267914,393.719757 
	C264.267914,393.719757 264.033630,394.022888 263.360596,394.159149 
	C262.365234,396.866730 261.369873,399.574310 260.171478,402.940704 
	C259.412262,404.603088 258.653046,406.265472 257.410187,408.035583 
	C257.283356,408.691406 257.156525,409.347198 257.028717,410.765656 
	C256.601593,412.461548 256.174469,414.157410 255.086227,416.028961 
	C254.068344,419.353058 253.050476,422.677155 251.956085,426.650665 
	C251.775253,427.494476 251.594421,428.338287 251.003555,429.857025 
	C250.652512,432.794403 250.301483,435.731781 249.950455,438.669159 
	C250.410049,438.809387 250.869659,438.949615 251.329269,439.089844 
	C253.355255,436.382629 255.381241,433.675415 257.421875,430.948639 
	C258.057068,432.311859 258.609161,433.496735 259.194275,434.752533 
	C261.249878,431.353821 262.665405,427.984222 264.993195,425.453674 
	C267.329468,422.913879 270.575012,421.210480 273.422089,419.140533 
	C272.904205,418.897156 272.386322,418.653809 271.868439,418.410431 
	C273.998016,419.906586 276.127625,421.402740 278.614105,423.149658 
	C279.928253,421.004120 280.849457,419.500092 282.070587,417.614410 
	C282.070587,417.614410 282.048126,417.129486 282.636627,416.799408 
	C284.668945,413.841553 286.701294,410.883698 289.352539,407.726288 
	C289.535156,407.140106 289.717773,406.553894 290.273865,405.321747 
	C290.395538,403.839874 290.517212,402.358032 290.848328,400.959534 
	C290.848328,400.959534 290.907593,400.742065 291.669891,400.768524 
	C295.922485,400.559906 294.587891,397.386078 295.139587,394.781891 
	C295.139587,394.781891 295.127136,394.321625 295.796051,394.078888 
	C298.009216,390.848663 300.222382,387.618469 303.011536,383.964722 
	C304.778778,380.503204 306.546051,377.041718 308.576233,373.065216 
	C312.885040,371.376038 313.740356,366.511230 315.682800,362.092346 
	C315.682800,362.092346 315.990662,361.778473 316.771729,361.780396 
	C319.143127,361.152802 321.489197,360.395630 323.891449,359.925842 
	C328.237793,359.075836 332.722107,358.759491 336.952728,357.540131 
	C340.794189,356.432892 344.374847,354.420837 348.271454,353.007233 
	C348.271454,353.007233 348.494995,352.833282 348.980103,353.604675 
	C347.800842,357.410492 346.621582,361.216309 345.050568,365.505066 
	C344.954285,366.112000 344.857971,366.718933 344.187042,367.776886 
	C340.447479,376.877289 336.681335,385.966858 332.980713,395.083069 
	C331.363373,399.067352 332.892670,402.220734 337.039398,402.962677 
	C337.262482,403.135773 337.485565,403.308838 337.764069,404.244720 
	C335.757263,407.260345 335.867859,410.172516 337.930817,413.206238 
	C338.642761,412.813599 339.137360,412.663666 339.460327,412.341644 
	C340.917084,410.888947 342.325256,409.387512 343.750977,407.903687 
	C343.990814,409.941895 344.230682,411.980072 344.332458,414.611237 
	C343.894470,415.652191 343.456482,416.693146 343.018494,417.734100 
	C343.189728,417.798676 343.360962,417.863251 343.532196,417.927795 
	C344.317719,416.593994 345.103271,415.260162 345.943298,413.991180 
	C345.943298,413.991180 345.945526,413.906525 346.633545,413.858185 
	C347.837738,409.426331 350.513824,406.372375 355.004089,404.993713 
	C355.004089,404.993713 354.967590,404.951599 355.512421,404.749908 
	C356.711914,402.197418 357.911407,399.644958 359.001587,397.013062 
	C359.001587,397.013062 359.094849,397.111084 359.660583,396.987396 
	C359.905304,396.279846 360.149994,395.572296 360.779572,394.264435 
	C360.882416,393.560089 360.985260,392.855713 361.614502,391.903656 
	C361.957794,391.236389 362.301086,390.569122 363.115967,389.541565 
	C363.416199,389.038818 363.716431,388.536041 364.982239,387.678986 
	C365.428009,389.274200 366.311798,390.900116 366.202667,392.456451 
	C366.081055,394.191681 365.056854,395.863678 364.425476,397.563171 
	C364.970917,397.770355 365.516357,397.977539 366.061829,398.184723 
	C367.064117,395.468842 368.066376,392.752960 369.586426,389.558167 
	C369.813049,388.422150 370.039703,387.286163 370.104065,386.107788 
	C370.104065,386.107788 370.100647,386.275452 370.646271,386.028351 
z"/>
<path fill="#EEF7F7" opacity="1.000000" stroke="none" 
	d="
M393.976868,358.993805 
	C394.302734,358.570709 394.628632,358.147614 395.378845,357.379333 
	C397.442169,353.332947 399.081146,349.631714 400.911316,345.676117 
	C401.773254,344.364197 402.444031,343.306641 403.453033,342.116974 
	C406.049744,337.797729 408.308197,333.610596 410.902710,328.800476 
	C407.792480,329.671539 405.260620,329.998108 403.150146,331.118469 
	C401.929199,331.766602 401.347137,333.673431 400.631683,335.091583 
	C400.584991,335.184204 401.858826,335.943024 402.714691,336.642822 
	C403.047607,337.056183 403.184265,337.218719 403.107666,337.570923 
	C402.433258,338.050507 401.972076,338.340485 401.184906,338.725586 
	C399.309631,340.020325 397.760345,341.219910 396.031311,342.333679 
	C395.851593,342.247864 395.455261,342.208588 395.106201,342.139587 
	C394.307617,341.670258 393.486847,341.285858 393.468842,340.866974 
	C393.351593,338.139893 393.408630,335.405334 393.408630,332.673248 
	C393.540039,332.709778 393.671478,332.746338 393.802887,332.782898 
	C394.201935,330.188599 394.600952,327.594299 395.217834,324.850433 
	C395.290436,324.133911 395.145203,323.566956 395.000549,322.667023 
	C395.002014,321.890076 395.002991,321.446075 395.350922,320.942963 
	C397.121124,318.244324 398.574829,315.620636 399.954437,312.958557 
	C400.620270,311.673706 401.146667,310.316589 401.736176,308.992218 
	C400.301331,314.515747 398.866486,320.039276 397.238953,326.304688 
	C402.471436,325.767395 407.614655,325.722412 412.459045,324.496552 
	C414.313934,324.027191 415.683594,320.978027 416.934052,318.899719 
	C421.686188,311.001495 426.296112,303.017731 430.970917,295.072815 
	C431.290222,294.530182 431.923065,293.548706 432.045135,293.602325 
	C439.981598,297.087769 439.602539,285.198486 446.212067,287.101593 
	C446.334595,287.408997 446.840973,288.679504 447.501923,290.337830 
	C452.651367,286.709839 455.654816,290.672668 458.945099,293.269867 
	C462.503387,296.078674 464.085968,299.041473 463.066467,304.363770 
	C461.943268,310.226990 463.410858,316.610504 463.909729,322.754395 
	C464.530884,330.404785 465.315552,338.041931 466.097931,346.416351 
	C482.414246,314.909088 498.248596,284.170044 520.665283,255.642975 
	C520.873840,258.209991 520.957031,259.234619 520.526123,260.737366 
	C518.805481,264.025299 517.464844,266.790985 516.511963,269.684418 
	C516.333496,270.226410 517.706604,271.279388 518.363708,272.096558 
	C518.175842,272.750854 517.987976,273.405121 517.346069,274.535583 
	C516.054993,277.112823 515.217957,279.213898 514.188965,281.796906 
	C516.574463,281.664673 517.717896,281.601288 519.476013,281.503845 
	C517.576355,285.169922 515.961243,288.286896 514.346130,291.403870 
	C514.753235,291.649078 515.160339,291.894287 515.567505,292.139496 
	C517.113831,290.636414 518.660217,289.133331 520.206543,287.630249 
	C521.907227,286.859283 523.607910,286.088318 526.457642,284.796448 
	C524.769897,288.757446 523.221252,292.106049 521.903809,295.543274 
	C519.177307,302.657013 516.933228,309.981537 513.785278,316.898315 
	C511.886139,321.071136 508.061005,324.371704 506.188599,328.551300 
	C504.017151,333.398499 501.464386,337.791016 498.119934,341.887054 
	C497.403198,342.764893 498.426514,345.063477 498.744568,347.421661 
	C495.838531,351.405365 491.383606,355.762848 489.375427,361.049713 
	C488.457947,363.465118 488.059906,366.875671 486.948456,369.575195 
	C485.005798,374.293640 482.446655,378.758240 479.605743,383.677856 
	C478.167358,386.156433 477.269104,388.286316 476.370850,390.416229 
	C474.848816,394.319977 473.326782,398.223724 471.392548,402.527588 
	C468.875824,402.725464 466.771301,402.523254 464.666779,402.321014 
	C464.407135,405.691742 461.533234,403.662201 460.069855,404.546356 
	C459.284271,404.781494 458.498718,405.016632 457.338013,404.892395 
	C456.400360,403.984192 455.837799,403.435333 455.275269,402.886475 
	C454.980835,402.700562 454.686432,402.514709 454.195862,401.835846 
	C453.437408,400.843292 452.875092,400.343689 452.312775,399.844116 
	C451.809509,399.830963 451.306213,399.817841 450.108643,399.862000 
	C448.320831,399.260834 447.227295,398.602417 446.133789,397.943970 
	C444.959961,392.401855 443.518188,386.900055 442.677490,381.307861 
	C441.528290,373.664001 440.801147,365.955139 439.989075,358.263977 
	C439.876953,357.202057 440.275208,356.073425 440.508484,354.991089 
	C440.808716,353.598114 441.508545,352.209106 441.460358,350.838684 
	C441.317596,346.778656 440.892029,342.728546 440.464264,337.222656 
	C437.539001,342.126526 435.115997,345.858459 433.019287,349.765472 
	C426.769806,361.410522 420.986908,373.321472 414.341858,384.732605 
	C410.726837,390.940460 407.877502,397.526215 402.844086,403.162140 
	C398.411865,408.124847 396.573578,415.404175 392.993347,421.553345 
	C391.883698,419.906677 391.370422,418.367096 390.763123,416.545532 
	C389.131104,418.398193 388.096375,420.670380 386.830505,420.807404 
	C382.773651,421.246490 382.580597,424.133209 381.962433,426.949280 
	C381.962433,426.949280 382.002289,426.995148 381.691895,427.010925 
	C380.927734,427.366730 380.473938,427.706726 379.730804,427.833984 
	C379.299469,425.823822 379.157471,424.026367 378.943207,421.314789 
	C376.289917,425.503052 374.129303,428.913666 371.968689,432.324310 
	C367.274170,437.547791 362.579651,442.771240 357.885132,447.994720 
	C357.611877,447.823730 357.338623,447.652740 357.065369,447.481750 
	C358.747833,442.405243 360.214783,437.244202 362.164124,432.272339 
	C364.976807,425.098419 368.043793,418.019196 371.175079,410.976379 
	C376.065796,399.976318 381.101227,389.040619 386.500977,377.597290 
	C389.276672,371.075928 391.626770,365.034882 393.976868,358.993805 
z"/>
<path fill="#F6FFFE" opacity="1.000000" stroke="none" 
	d="
M395.000000,325.000000 
	C394.600952,327.594299 394.201935,330.188599 393.802887,332.782898 
	C393.671478,332.746338 393.540039,332.709778 393.408630,332.673248 
	C393.408630,335.405334 393.351593,338.139893 393.468842,340.866974 
	C393.486847,341.285858 394.307617,341.670258 395.012207,342.489990 
	C395.176910,343.606628 395.086456,344.303894 394.673523,345.038544 
	C393.885071,345.933777 393.419159,346.791626 392.595551,347.737854 
	C391.507996,347.928772 390.778137,348.031342 389.892181,347.894470 
	C389.150787,348.049469 388.565460,348.443878 387.694763,348.910400 
	C387.020264,349.031067 386.631134,349.079590 385.892273,349.110840 
	C384.686523,349.757263 383.830444,350.420959 382.610992,351.051880 
	C381.520050,351.024231 380.792450,351.029358 379.675049,351.025635 
	C376.877106,352.076050 374.468994,353.135254 372.273071,354.101105 
	C372.657257,356.391022 372.899231,357.833099 372.967590,359.573944 
	C372.538788,361.228882 372.283600,362.585052 372.052032,364.262939 
	C372.444122,365.075836 372.812531,365.567108 373.137451,366.381439 
	C373.055725,367.137726 373.017548,367.570892 372.707886,368.203857 
	C369.858276,371.623566 367.372375,374.923340 364.675171,378.040192 
	C362.170380,380.934753 359.461609,383.654968 356.799896,386.410645 
	C355.522461,387.733185 355.044250,395.420013 356.019470,397.361633 
	C355.261383,399.093292 354.695312,400.540802 353.693176,401.992828 
	C348.848816,402.447571 344.440582,402.897827 340.916779,403.257751 
	C339.664612,400.687653 339.204376,398.769470 338.031555,397.520386 
	C334.659424,393.928864 335.694733,388.023621 339.811859,385.031952 
	C341.735413,383.634186 343.296722,380.976990 343.840851,378.618134 
	C344.680756,374.976990 344.506073,371.101776 344.761688,367.325867 
	C344.857971,366.718933 344.954285,366.112000 345.587463,365.255981 
	C347.922668,363.375549 351.468506,361.231201 351.170258,360.215271 
	C350.460358,357.796906 353.246277,353.704712 348.494995,352.833282 
	C348.494995,352.833282 348.271454,353.007233 348.057312,352.553864 
	C345.737518,352.062378 343.627991,351.930634 341.527466,352.016937 
	C339.962189,352.081299 337.492615,353.154938 336.997467,352.531250 
	C333.644653,348.308258 331.336884,351.716034 328.686340,353.242767 
	C327.787811,353.760345 326.746613,354.214142 325.732971,354.313538 
	C322.690063,354.611847 319.628601,354.720978 316.968719,354.880310 
	C316.572449,357.675232 316.281555,359.726868 315.990662,361.778473 
	C315.990662,361.778473 315.682800,362.092346 315.079590,362.072327 
	C312.651306,362.701904 310.826263,363.351562 308.618103,364.008514 
	C305.490021,363.677643 302.744995,363.339447 299.648590,363.007202 
	C298.865601,364.008362 298.434021,365.003571 298.001892,366.399170 
	C297.001740,368.866760 296.002106,370.933990 295.000763,373.250305 
	C294.999054,373.499390 294.996735,373.997559 294.655396,374.056702 
	C293.876892,375.078003 293.439667,376.040222 293.001099,377.251160 
	C292.999725,377.499939 292.998413,377.997559 292.640503,378.006622 
	C291.582336,378.464630 290.882080,378.913574 290.181854,379.362518 
	C290.786285,379.909973 291.390717,380.457428 291.995483,381.251160 
	C291.995789,381.497437 291.996338,381.990021 291.997742,381.994385 
	C291.999115,381.998779 291.990784,382.000275 291.750702,382.171814 
	C291.340424,382.895599 291.170227,383.447784 290.746948,384.184814 
	C290.092773,385.307587 289.691711,386.245575 289.720490,386.178253 
	C292.248016,386.463348 294.627075,386.731689 297.106323,387.267487 
	C296.472260,388.692841 295.737976,389.850708 294.658569,391.064514 
	C293.206116,393.747894 292.098785,396.375305 290.981934,399.292786 
	C290.950775,399.969269 290.929169,400.355652 290.907593,400.742065 
	C290.907593,400.742065 290.848328,400.959534 290.469727,400.936035 
	C289.726227,400.940033 289.361267,400.967560 288.632507,400.991333 
	C286.799408,399.170959 285.330109,397.354401 283.500580,395.092468 
	C283.302704,396.632874 283.150757,397.815826 282.741699,399.209656 
	C282.321045,400.280151 282.157471,401.139832 281.643555,402.041138 
	C280.218903,403.425385 279.144592,404.767914 278.070251,406.110474 
	C278.533966,406.406372 278.997650,406.702301 279.461365,406.998199 
	C280.520203,405.997101 281.579071,404.996002 282.309326,404.305573 
	C284.107574,405.728363 285.546478,406.866821 286.976044,408.362091 
	C285.312408,410.807861 283.658112,412.896820 281.858948,414.672974 
	C280.475647,413.573883 279.237213,412.787567 277.659851,411.850677 
	C269.526031,410.713684 267.496033,412.234772 265.905762,419.872070 
	C265.689514,420.910614 264.543243,422.529144 263.779419,422.556976 
	C257.913849,422.770599 255.893921,426.845795 254.056793,432.076843 
	C253.035263,430.958099 252.224426,430.070099 251.413589,429.182098 
	C251.594421,428.338287 251.775253,427.494476 252.256027,426.095734 
	C253.619751,422.311615 254.683533,419.082458 255.747345,415.853302 
	C256.174469,414.157410 256.601593,412.461548 257.203735,410.384125 
	C257.378784,410.002594 257.703247,409.873871 258.072449,409.880066 
	C263.348785,408.318268 264.876312,405.445221 261.953003,400.489075 
	C262.660095,398.095978 263.346863,396.059448 264.033630,394.022888 
	C264.033630,394.022888 264.267914,393.719757 264.619385,393.466156 
	C265.355927,392.811951 265.741028,392.411346 266.468750,392.002136 
	C267.540894,391.329010 268.270447,390.664520 269.144470,389.671265 
	C269.990143,387.878113 271.020721,386.466339 271.266632,384.929077 
	C271.409729,384.034607 270.294708,382.938904 269.782837,381.576050 
	C269.779327,380.755463 269.738739,380.292542 269.698181,379.829620 
	C269.956451,379.238373 270.214722,378.647095 270.872803,377.569122 
	C272.699249,374.172913 274.265961,371.318268 275.443756,368.311279 
	C275.703979,367.646912 274.587830,366.443359 274.049072,365.106445 
	C271.458160,360.424072 267.777618,356.337708 271.879730,350.945648 
	C272.366638,350.305634 271.989624,349.008331 272.316101,347.973419 
	C273.081970,347.349335 273.544800,346.767548 274.007629,346.185730 
	C274.702911,346.041992 275.398163,345.898254 276.734741,345.780060 
	C277.917938,345.540619 278.459900,345.275665 279.001831,345.010681 
	C279.431915,345.002167 279.861969,344.993622 281.023804,345.039764 
	C284.347748,344.503571 287.863800,346.026764 288.935486,341.956665 
	C289.108276,341.687592 289.292419,341.426544 289.977295,341.183044 
	C291.152649,341.202179 291.838593,341.211792 292.524567,341.221375 
	C292.022675,340.495300 291.520813,339.769257 291.018921,339.043182 
	C291.360931,337.997070 291.702942,336.950958 292.492218,335.486115 
	C293.286133,334.040405 293.632782,333.013428 293.979431,331.986481 
	C293.979462,331.986481 294.208984,331.682404 294.602631,331.437439 
	C295.591400,330.304077 296.186493,329.415710 296.947571,328.812012 
	C299.318298,327.758423 302.496429,326.913666 303.487030,324.959839 
	C304.793152,322.383606 306.367340,318.778625 303.032104,315.672485 
	C303.301971,314.515503 303.544342,313.685883 303.786713,312.856262 
	C304.049988,312.680664 304.284729,312.472839 305.068634,312.109375 
	C310.096619,309.646454 310.580627,308.351898 307.896057,305.968567 
	C307.878754,305.802399 307.861420,305.636200 308.245483,305.115112 
	C309.509216,302.587158 310.371613,300.414124 311.234009,298.241089 
	C312.284058,297.568665 313.334106,296.896240 314.960449,296.115112 
	C315.920044,295.819641 316.303314,295.632843 316.878265,295.762329 
	C318.253845,296.078644 319.437775,296.078644 320.621674,296.078644 
	C320.644989,295.604706 320.668274,295.130768 320.691589,294.656830 
	C319.730316,294.081757 318.769043,293.506683 317.801819,292.574310 
	C318.175934,291.129517 318.556000,290.042023 318.936066,288.954529 
	C319.135498,288.679901 319.334961,288.405243 320.069946,288.119843 
	C322.406799,288.148010 324.217560,288.322113 326.007294,288.196472 
	C329.269226,287.967499 332.518677,287.560699 335.773315,287.228088 
	C336.891174,288.542664 338.009003,289.857208 339.244690,291.835571 
	C339.578705,293.665649 339.794922,294.831940 340.011139,295.998230 
	C339.219391,298.489746 338.427643,300.981232 337.024231,303.844971 
	C334.678802,305.128265 332.945007,306.039368 331.211212,306.950470 
	C332.139587,308.299316 333.067963,309.648132 333.994507,311.369659 
	C333.660156,313.159943 333.327637,314.577515 332.632141,315.996887 
	C331.545654,315.984314 330.822205,315.969910 329.886261,315.729187 
	C328.783752,316.334839 327.893707,317.166809 326.814453,318.263550 
	C325.746918,320.353699 324.868561,322.179077 323.990906,324.336975 
	C323.994019,325.113007 323.996399,325.556488 323.728912,326.207092 
	C322.970673,328.609833 322.482269,330.805542 322.000610,333.384003 
	C322.772552,339.148407 326.175537,335.870026 328.948608,335.616821 
	C333.861237,334.937042 338.433502,334.417786 343.067474,334.262146 
	C344.417450,335.082611 345.705658,335.539490 347.416290,335.997528 
	C351.384918,336.511932 354.931152,337.025177 358.652435,337.563751 
	C359.520355,336.043671 360.125458,334.436554 361.199860,333.256775 
	C362.262024,332.090454 363.747681,331.270294 365.137085,330.450012 
	C367.760559,328.901123 370.797882,322.182373 369.733612,319.443878 
	C369.452087,318.719604 367.953033,318.468536 367.036560,317.644531 
	C367.266876,316.132477 367.473755,314.976044 367.680634,313.819580 
	C368.394745,312.887146 369.108856,311.954712 370.437012,311.023926 
	C372.659210,311.740021 374.267426,312.454529 375.528717,313.014893 
	C375.804901,310.061768 376.166565,307.874542 376.138794,305.692322 
	C376.127106,304.774078 375.292816,303.866272 374.863373,302.589203 
	C374.827423,301.761536 374.760529,301.298340 374.693665,300.835175 
	C376.128021,298.795959 377.562408,296.756744 379.179199,294.326202 
	C379.361603,293.934906 379.653839,293.760590 379.748749,294.139160 
	C380.091553,295.543640 380.339478,296.569550 380.608124,297.681335 
	C386.358978,294.700867 387.995361,288.893524 384.565826,284.452209 
	C384.681183,283.354401 384.756683,282.624878 384.832184,281.895325 
	C385.171173,281.419891 385.510162,280.944489 386.346497,280.303528 
	C389.065979,282.331909 390.915527,285.575378 393.580719,286.521851 
	C401.391754,289.295685 402.087616,295.289520 402.039062,302.352417 
	C402.393250,303.817444 402.712006,304.934235 403.030762,306.050995 
	C403.030792,306.050995 402.992279,306.023865 402.588501,306.015198 
	C398.629700,306.133667 394.154266,305.375061 393.607941,310.312744 
	C393.224091,313.781891 394.480164,317.432526 395.003967,321.002106 
	C395.002991,321.446075 395.002014,321.890076 394.781067,322.815857 
	C394.707367,323.865082 394.853668,324.432556 395.000000,325.000000 
M335.455933,300.714386 
	C335.717377,300.988739 335.976410,301.265717 336.253693,301.522980 
	C336.260864,301.529663 336.467743,301.321136 336.581482,301.212952 
	C336.319641,300.938477 336.057800,300.663971 335.455933,300.714386 
M325.285614,314.455933 
	C325.011322,314.717163 324.737030,314.978363 324.462738,315.239594 
	C324.570953,315.353180 324.679138,315.466766 324.787354,315.580353 
	C325.061707,315.318817 325.336060,315.057281 325.285614,314.455933 
z"/>
<path fill="#F1F9FA" opacity="1.000000" stroke="none" 
	d="
M272.013062,348.015717 
	C271.989624,349.008331 272.366638,350.305634 271.879730,350.945648 
	C267.777618,356.337708 271.458160,360.424072 273.715210,365.236206 
	C271.627777,366.217590 269.817871,366.687561 268.007965,367.157471 
	C267.597229,367.186615 267.186523,367.215729 266.205078,367.017242 
	C264.277130,364.775391 262.919922,362.761139 261.562714,360.746918 
	C259.951843,362.820404 258.341003,364.893890 256.403503,367.008972 
	C254.414749,368.519714 252.752701,369.988922 251.074554,371.472321 
	C251.597061,372.723724 252.074646,373.867554 252.309219,374.429382 
	C247.041016,379.706482 245.832382,386.374512 243.302994,392.355042 
	C243.131073,393.488190 242.959152,394.621338 242.168320,395.856262 
	C239.341003,394.989044 237.515396,394.651825 236.833511,397.846222 
	C236.090729,401.325958 235.055817,404.743347 234.148285,408.187897 
	C234.148285,408.187897 234.048599,408.662445 233.575638,408.839600 
	C233.066086,409.341370 233.029510,409.665955 232.992920,409.990570 
	C232.515060,411.061676 232.037201,412.132812 231.012222,413.489441 
	C229.631424,414.586884 228.797760,415.398773 227.964111,416.210693 
	C226.861847,417.053650 225.759567,417.896576 223.991165,418.902710 
	C221.505997,419.600586 219.686951,420.135254 217.867920,420.669922 
	C217.867920,420.669922 217.634857,421.016296 217.033813,421.002625 
	C215.903580,417.848389 215.374390,414.707825 214.760803,411.066437 
	C213.407120,413.651337 212.239243,415.881409 211.071381,418.111511 
	C209.195602,420.762421 208.210373,423.847809 204.075287,424.779846 
	C202.064682,425.233063 200.815613,429.064850 198.729736,431.335022 
	C198.107147,431.154419 197.976654,431.005981 197.846161,430.857544 
	C200.630249,422.679352 203.135788,414.392944 206.261948,406.347656 
	C211.299316,393.383911 216.567688,380.502502 222.062607,367.725708 
	C229.783890,349.772278 237.514908,331.812500 245.780945,314.107147 
	C252.775436,299.125366 260.536102,284.501312 268.507599,269.366699 
	C269.634308,267.587372 270.211121,266.160248 270.787933,264.733154 
	C270.787933,264.733154 270.920258,264.319366 271.386169,264.134277 
	C271.874084,263.598389 271.896118,263.247620 271.918152,262.896820 
	C272.236298,262.451508 272.554443,262.006195 273.367798,261.414734 
	C278.613739,264.201660 271.558472,266.066040 273.333557,268.949738 
	C274.187866,268.239990 275.024872,267.544678 275.963440,266.953064 
	C276.065033,267.056824 276.272491,267.259979 276.253387,267.674561 
	C275.558411,271.752502 274.882507,275.415833 274.137848,279.451965 
	C275.957947,280.010559 277.780762,280.569977 279.603577,281.129425 
	C280.647949,280.364746 281.692291,279.600037 283.392212,278.588135 
	C284.276764,279.976440 284.328064,281.663422 284.783142,283.233337 
	C285.266815,284.901886 286.133301,286.459442 286.832642,288.065460 
	C287.251129,291.390656 287.853271,294.708008 287.995789,298.044983 
	C288.051147,299.341614 287.182129,300.740753 286.539154,301.993042 
	C283.979462,306.978088 281.342926,311.923676 278.261597,317.439148 
	C277.236908,319.359253 277.062866,321.166626 276.069702,322.013641 
	C271.336426,326.050476 268.582977,330.995972 268.107483,337.202087 
	C267.761688,338.228271 267.415924,339.254486 266.737854,340.663940 
	C265.250031,341.989624 264.094482,342.932007 263.067047,343.769928 
	C264.727020,346.143250 265.963074,347.910461 267.453064,350.040741 
	C268.094269,348.928406 268.550079,348.137726 269.005859,347.347046 
	C269.455139,347.248840 269.904419,347.150635 270.807220,347.286072 
	C271.462769,347.758881 271.713531,347.924225 272.013062,348.015717 
z"/>
<path fill="#EEF7F7" opacity="1.000000" stroke="none" 
	d="
M373.180969,366.058350 
	C372.812531,365.567108 372.444122,365.075836 372.427216,364.309052 
	C374.014099,364.220367 375.249451,364.407257 376.670929,364.622314 
	C377.376770,361.430023 377.477570,358.910492 373.141174,359.275208 
	C372.899231,357.833099 372.657257,356.391022 372.273071,354.101105 
	C374.468994,353.135254 376.877106,352.076050 379.507874,351.363647 
	C378.325104,354.848602 375.613861,358.026917 379.966187,361.358948 
	C379.356537,363.607056 378.796783,365.482544 378.237000,367.358002 
	C377.824402,368.097351 377.411804,368.836700 376.457733,369.975647 
	C374.260773,374.523987 372.605316,378.672729 370.852661,383.065002 
	C369.616058,381.909668 368.739319,381.090546 367.691132,380.111237 
	C366.343567,383.016541 365.180145,385.524933 364.016693,388.033295 
	C363.716431,388.536041 363.416199,389.038818 362.570129,389.778015 
	C361.712250,390.726746 361.400146,391.439056 361.088074,392.151367 
	C360.985260,392.855713 360.882416,393.560089 360.298981,394.640259 
	C359.577209,395.714447 359.336029,396.412750 359.094849,397.111084 
	C359.094849,397.111084 359.001587,397.013062 358.695160,396.992645 
	C357.662994,397.007324 356.937256,397.042419 356.211517,397.077515 
	C355.044250,395.420013 355.522461,387.733185 356.799896,386.410645 
	C359.461609,383.654968 362.170380,380.934753 364.675171,378.040192 
	C367.372375,374.923340 369.858276,371.623566 373.062683,368.246277 
	C374.315002,367.745422 374.941040,367.401855 375.567078,367.058289 
	C374.771729,366.724945 373.976349,366.391632 373.180969,366.058350 
z"/>
<path fill="#EEF7F7" opacity="1.000000" stroke="none" 
	d="
M344.474365,367.551392 
	C344.506073,371.101776 344.680756,374.976990 343.840851,378.618134 
	C343.296722,380.976990 341.735413,383.634186 339.811859,385.031952 
	C335.694733,388.023621 334.659424,393.928864 338.031555,397.520386 
	C339.204376,398.769470 339.664612,400.687653 340.916779,403.257751 
	C344.440582,402.897827 348.848816,402.447571 353.887634,402.236481 
	C354.668030,403.300964 354.817810,404.126282 354.967590,404.951599 
	C354.967590,404.951599 355.004089,404.993713 354.577026,404.949219 
	C347.554565,404.386658 347.419373,409.756622 345.945526,413.906525 
	C345.945526,413.906525 345.943298,413.991180 345.679199,413.874390 
	C345.100281,413.844513 344.785400,413.931396 344.470551,414.018280 
	C344.230682,411.980072 343.990814,409.941895 343.750977,407.903687 
	C342.325256,409.387512 340.917084,410.888947 339.460327,412.341644 
	C339.137360,412.663666 338.642761,412.813599 337.930817,413.206238 
	C335.867859,410.172516 335.757263,407.260345 337.828430,403.577881 
	C337.846710,402.332458 337.800629,401.753845 337.724640,400.800476 
	C337.131104,401.520569 336.768250,401.960785 336.405396,402.401001 
	C332.892670,402.220734 331.363373,399.067352 332.980713,395.083069 
	C336.681335,385.966858 340.447479,376.877289 344.474365,367.551392 
z"/>
<path fill="#EEF7F7" opacity="1.000000" stroke="none" 
	d="
M251.208572,429.519562 
	C252.224426,430.070099 253.035263,430.958099 254.056793,432.076843 
	C255.893921,426.845795 257.913849,422.770599 263.779419,422.556976 
	C264.543243,422.529144 265.689514,420.910614 265.905762,419.872070 
	C267.496033,412.234772 269.526031,410.713684 277.617157,412.210022 
	C276.971985,414.864563 276.030640,417.009155 274.446198,420.618805 
	C277.834961,419.405365 279.802826,418.700745 281.770660,417.996094 
	C280.849457,419.500092 279.928253,421.004120 278.614105,423.149658 
	C276.127625,421.402740 273.998016,419.906586 271.868439,418.410431 
	C272.386322,418.653809 272.904205,418.897156 273.422089,419.140533 
	C270.575012,421.210480 267.329468,422.913879 264.993195,425.453674 
	C262.665405,427.984222 261.249878,431.353821 259.194275,434.752533 
	C258.609161,433.496735 258.057068,432.311859 257.421875,430.948639 
	C255.381241,433.675415 253.355255,436.382629 251.329269,439.089844 
	C250.869659,438.949615 250.410049,438.809387 249.950455,438.669159 
	C250.301483,435.731781 250.652512,432.794403 251.208572,429.519562 
z"/>
<path fill="#F5FDFC" opacity="1.000000" stroke="none" 
	d="
M402.003662,302.004150 
	C402.087616,295.289520 401.391754,289.295685 393.580719,286.521851 
	C390.915527,285.575378 389.065979,282.331909 386.524170,280.071167 
	C387.414612,277.931793 388.624664,275.859253 390.368774,273.447266 
	C391.533417,271.693146 392.164001,270.278503 392.794586,268.863861 
	C392.794586,268.863861 393.036591,268.823364 393.425354,268.925720 
	C396.269653,268.754425 397.319427,267.855164 395.337036,265.606354 
	C395.337036,265.606354 395.414459,265.492432 395.822571,265.592682 
	C396.849091,266.757568 398.265472,268.236298 397.961395,268.822205 
	C395.173553,274.194000 397.466492,279.436127 397.206085,284.860870 
	C399.442413,284.599457 400.867096,284.432953 402.267548,284.269257 
	C403.222504,287.682739 403.776093,290.993042 405.075836,293.978424 
	C406.795380,297.927917 405.418579,300.245789 402.003662,302.004150 
M393.289276,282.712921 
	C393.601044,282.138580 393.912811,281.564240 394.224579,280.989929 
	C393.816620,280.902802 393.408630,280.815643 393.000671,280.728485 
	C392.912933,281.367035 392.825226,282.005615 393.289276,282.712921 
z"/>
<path fill="#EEF7F7" opacity="1.000000" stroke="none" 
	d="
M402.039062,302.352417 
	C405.418579,300.245789 406.795380,297.927917 405.075836,293.978424 
	C403.776093,290.993042 403.222504,287.682739 402.267548,284.269257 
	C400.867096,284.432953 399.442413,284.599457 397.206085,284.860870 
	C397.466492,279.436127 395.173553,274.194000 397.961395,268.822205 
	C398.265472,268.236298 396.849091,266.757568 395.856903,265.532959 
	C397.701508,262.223694 399.919922,259.074432 402.138306,255.925140 
	C402.412048,256.063660 402.685760,256.202179 402.959473,256.340668 
	C401.401733,264.841400 399.843964,273.342133 398.089905,282.914185 
	C400.431763,282.144196 402.013184,281.624237 403.601959,281.101837 
	C408.315582,289.251038 408.527252,297.515289 403.353455,305.928467 
	C402.712006,304.934235 402.393250,303.817444 402.039062,302.352417 
z"/>
<path fill="#EEF7F7" opacity="1.000000" stroke="none" 
	d="
M316.381195,361.779419 
	C316.281555,359.726868 316.572449,357.675232 316.968719,354.880310 
	C319.628601,354.720978 322.690063,354.611847 325.732971,354.313538 
	C326.746613,354.214142 327.787811,353.760345 328.686340,353.242767 
	C331.336884,351.716034 333.644653,348.308258 336.997467,352.531250 
	C337.492615,353.154938 339.962189,352.081299 341.527466,352.016937 
	C343.627991,351.930634 345.737518,352.062378 347.956818,352.454102 
	C344.374847,354.420837 340.794189,356.432892 336.952728,357.540131 
	C332.722107,358.759491 328.237793,359.075836 323.891449,359.925842 
	C321.489197,360.395630 319.143127,361.152802 316.381195,361.779419 
z"/>
<path fill="#F5FDFC" opacity="1.000000" stroke="none" 
	d="
M367.013062,318.000153 
	C367.953033,318.468536 369.452087,318.719604 369.733612,319.443878 
	C370.797882,322.182373 367.760559,328.901123 365.137085,330.450012 
	C363.747681,331.270294 362.262024,332.090454 361.199860,333.256775 
	C360.125458,334.436554 359.520355,336.043671 358.652435,337.563751 
	C354.931152,337.025177 351.384918,336.511932 347.270386,335.678528 
	C346.392426,334.728638 346.082764,334.098969 345.918518,333.311279 
	C346.372925,332.989410 346.465729,332.743835 346.342255,332.416504 
	C350.686829,331.798340 355.031372,331.180145 360.052979,330.325500 
	C361.149231,329.388824 361.568451,328.688599 361.987671,327.988373 
	C362.330383,327.207153 362.673065,326.425934 363.260132,325.070068 
	C364.674042,322.330322 365.843536,320.165222 367.013062,318.000153 
z"/>
<path fill="#606A6D" opacity="1.000000" stroke="none" 
	d="
M345.888092,332.385925 
	C346.465729,332.743835 346.372925,332.989410 345.565552,333.311218 
	C344.380035,333.612305 343.692871,333.755432 343.005737,333.898560 
	C338.433502,334.417786 333.861237,334.937042 328.704346,335.359009 
	C327.478119,334.147461 326.836578,333.033234 326.202087,331.593262 
	C326.353119,329.917725 326.497101,328.567902 326.877960,327.029114 
	C327.790771,325.578583 328.466675,324.317047 329.388519,322.833313 
	C330.017975,321.586121 330.401489,320.561096 330.771851,319.515930 
	C330.758698,319.495789 330.783295,319.456299 331.012238,319.327515 
	C331.826813,318.781647 332.412476,318.364624 333.365540,318.048462 
	C334.490356,318.098785 335.247803,318.048279 336.005249,317.997742 
	C333.873291,322.620941 331.741364,327.244110 329.432251,332.430542 
	C329.634583,333.133301 330.014130,333.272797 330.393677,333.412292 
	C335.407104,333.059998 340.420502,332.707703 345.888092,332.385925 
z"/>
<path fill="#A7AFB2" opacity="1.000000" stroke="none" 
	d="
M275.861877,266.849304 
	C275.024872,267.544678 274.187866,268.239990 273.333557,268.949738 
	C271.558472,266.066040 278.613739,264.201660 273.558716,261.191895 
	C274.078644,259.883484 274.902893,258.651764 275.759949,257.371063 
	C278.270721,259.454712 278.518005,261.953705 279.217407,265.199066 
	C280.305664,270.248505 278.220123,273.986420 277.917969,278.306763 
	C277.873413,278.943512 278.639984,279.636963 279.317444,280.716797 
	C277.780762,280.569977 275.957947,280.010559 274.137848,279.451965 
	C274.882507,275.415833 275.558411,271.752502 276.415039,267.538513 
	C276.541748,266.753510 276.487701,266.519135 276.433655,266.284790 
	C276.243042,266.472961 276.052460,266.661133 275.861877,266.849304 
z"/>
<path fill="#EEF7F7" opacity="1.000000" stroke="none" 
	d="
M309.001221,364.001221 
	C310.826263,363.351562 312.651306,362.701904 314.859772,362.074036 
	C313.740356,366.511230 312.885040,371.376038 308.576233,373.065216 
	C306.546051,377.041718 304.778778,380.503204 302.587219,384.054993 
	C302.162872,384.145233 301.891327,383.901093 301.931427,383.542114 
	C302.284454,381.153168 302.232147,378.975189 302.983002,377.122742 
	C304.788727,372.667694 306.970917,368.365234 309.001221,364.001221 
z"/>
<path fill="#C7D3D3" opacity="1.000000" stroke="none" 
	d="
M268.483612,337.168945 
	C268.582977,330.995972 271.336426,326.050476 276.069702,322.013641 
	C277.062866,321.166626 277.236908,319.359253 277.915436,317.690491 
	C278.548798,318.071930 279.644623,319.024994 279.473175,319.402466 
	C276.832336,325.216248 274.065186,330.974640 271.183136,336.672974 
	C270.963226,337.107697 269.659607,336.994354 268.483612,337.168945 
z"/>
<path fill="#B9C4C7" opacity="1.000000" stroke="none" 
	d="
M364.499451,387.856140 
	C365.180145,385.524933 366.343567,383.016541 367.691132,380.111237 
	C368.739319,381.090546 369.616058,381.909668 370.852661,383.065002 
	C372.605316,378.672729 374.260773,374.523987 376.196198,370.180359 
	C374.774780,374.803741 373.073395,379.621948 370.938782,384.821838 
	C370.370544,385.560791 370.235596,385.918121 370.100647,386.275452 
	C370.100647,386.275452 370.104065,386.107788 369.827911,386.075348 
	C369.390747,387.374298 369.229706,388.705688 369.068665,390.037079 
	C368.066376,392.752960 367.064117,395.468842 366.061829,398.184723 
	C365.516357,397.977539 364.970917,397.770355 364.425476,397.563171 
	C365.056854,395.863678 366.081055,394.191681 366.202667,392.456451 
	C366.311798,390.900116 365.428009,389.274200 364.499451,387.856140 
z"/>
<path fill="#606A6D" opacity="1.000000" stroke="none" 
	d="
M520.217773,287.281219 
	C518.660217,289.133331 517.113831,290.636414 515.567505,292.139496 
	C515.160339,291.894287 514.753235,291.649078 514.346130,291.403870 
	C515.961243,288.286896 517.576355,285.169922 519.476013,281.503845 
	C517.717896,281.601288 516.574463,281.664673 514.188965,281.796906 
	C515.217957,279.213898 516.054993,277.112823 517.218567,274.853577 
	C519.165527,276.624817 520.786011,278.554169 522.580383,280.690643 
	C523.623596,279.167908 524.606018,277.733917 525.588440,276.299927 
	C526.064453,276.609772 526.540466,276.919647 527.016418,277.229523 
	C525.720703,279.090881 524.427673,280.954193 523.128235,282.812958 
	C522.166199,284.189087 521.195801,285.559326 520.217773,287.281219 
z"/>
<path fill="#F5FDFC" opacity="1.000000" stroke="none" 
	d="
M395.350891,320.942963 
	C394.480164,317.432526 393.224091,313.781891 393.607941,310.312744 
	C394.154266,305.375061 398.629700,306.133667 402.611847,306.014191 
	C402.725800,306.829590 402.412567,307.637329 401.917786,308.718658 
	C401.146667,310.316589 400.620270,311.673706 399.954437,312.958557 
	C398.574829,315.620636 397.121124,318.244324 395.350891,320.942963 
z"/>
<path fill="#A7AFB2" opacity="1.000000" stroke="none" 
	d="
M243.586975,392.178925 
	C245.832382,386.374512 247.041016,379.706482 252.309219,374.429382 
	C252.074646,373.867554 251.597061,372.723724 251.074554,371.472321 
	C252.752701,369.988922 254.414749,368.519714 256.522034,367.066559 
	C256.967255,367.082581 257.207916,367.189911 257.207916,367.189911 
	C252.762268,375.460876 248.316620,383.731842 243.586975,392.178925 
M251.927475,378.534851 
	C251.711609,378.530029 251.495758,378.525208 251.279892,378.520386 
	C251.385635,378.619965 251.491394,378.719543 251.927475,378.534851 
z"/>
<path fill="#B9C4C7" opacity="1.000000" stroke="none" 
	d="
M372.491516,432.212952 
	C374.129303,428.913666 376.289917,425.503052 378.943207,421.314789 
	C379.157471,424.026367 379.299469,425.823822 379.717590,428.190552 
	C380.051941,429.230835 380.110229,429.701843 380.168518,430.172852 
	C380.168549,430.172852 380.021973,430.154663 379.665131,430.095398 
	C378.870148,431.355835 378.432007,432.675507 377.993866,433.995178 
	C376.403351,436.517242 374.812836,439.039276 373.079163,441.788330 
	C373.721191,438.905670 374.397522,436.319061 374.783203,433.689819 
	C374.846802,433.256195 373.636169,432.635712 372.491516,432.212952 
z"/>
<path fill="#A7AFB2" opacity="1.000000" stroke="none" 
	d="
M211.448120,418.231689 
	C212.239243,415.881409 213.407120,413.651337 214.760803,411.066437 
	C215.374390,414.707825 215.903580,417.848389 216.844330,421.090210 
	C215.773758,423.413818 214.427887,425.746277 212.756393,427.815735 
	C211.815765,428.980286 210.337906,429.710907 208.156967,431.345306 
	C209.658936,426.024658 210.741913,422.188263 211.448120,418.231689 
z"/>
<path fill="#A7AFB2" opacity="1.000000" stroke="none" 
	d="
M382.335907,426.740936 
	C382.580597,424.133209 382.773651,421.246490 386.830505,420.807404 
	C388.096375,420.670380 389.131104,418.398193 390.763123,416.545532 
	C391.370422,418.367096 391.883698,419.906677 392.669128,421.698486 
	C391.651306,424.308899 390.361298,426.667053 389.606262,428.047272 
	C389.601624,428.054718 390.201691,427.093048 391.418854,425.142487 
	C387.855255,425.711243 385.282318,426.121918 382.335907,426.740936 
z"/>
<path fill="#F1F9FA" opacity="1.000000" stroke="none" 
	d="
M282.998779,398.998779 
	C283.150757,397.815826 283.302704,396.632874 283.500580,395.092468 
	C285.330109,397.354401 286.799408,399.170959 288.632568,401.372375 
	C289.297760,403.160736 289.599091,404.564240 289.900391,405.967712 
	C289.717773,406.553894 289.535156,407.140106 288.751984,407.842834 
	C287.762726,407.974701 287.374054,407.989990 286.985352,408.005280 
	C285.546478,406.866821 284.107574,405.728363 282.309326,404.305573 
	C281.579071,404.996002 280.520203,405.997101 279.461365,406.998199 
	C278.997650,406.702301 278.533966,406.406372 278.070251,406.110474 
	C279.144592,404.767914 280.218903,403.425385 281.914886,401.910004 
	C282.690613,400.824371 282.844696,399.911591 282.998779,398.998779 
z"/>
<path fill="#A7AFB2" opacity="1.000000" stroke="none" 
	d="
M234.409790,407.933716 
	C235.055817,404.743347 236.090729,401.325958 236.833511,397.846222 
	C237.515396,394.651825 239.341003,394.989044 241.910767,396.086243 
	C241.284332,398.212158 240.485016,400.335785 239.257599,402.173431 
	C237.938278,404.148712 236.217102,405.855530 234.409790,407.933716 
z"/>
<path fill="#B9C4C7" opacity="1.000000" stroke="none" 
	d="
M380.016052,360.986328 
	C375.613861,358.026917 378.325104,354.848602 379.897705,351.372437 
	C380.792450,351.029358 381.520050,351.024231 382.811066,351.309784 
	C384.211487,351.722015 385.048431,351.843567 385.885406,351.965149 
	C384.845856,354.578369 383.806274,357.191620 382.346130,359.876465 
	C381.925568,359.948120 381.635986,359.715576 381.667786,359.423492 
	C381.386353,358.895203 381.073151,358.658997 380.759949,358.422821 
	C380.502411,359.288239 380.244873,360.153687 379.993622,361.010254 
	C379.999908,361.001404 380.016052,360.986328 380.016052,360.986328 
z"/>
<path fill="#F1F9FA" opacity="1.000000" stroke="none" 
	d="
M303.004578,315.999878 
	C306.367340,318.778625 304.793152,322.383606 303.487030,324.959839 
	C302.496429,326.913666 299.318298,327.758423 296.979462,328.539795 
	C296.853180,327.625885 296.860962,327.268921 296.868744,326.911957 
	C297.660278,325.281006 298.451843,323.650085 299.659424,321.572021 
	C301.051849,319.416565 302.028198,317.708221 303.004578,315.999878 
z"/>
<path fill="#A7AFB2" opacity="1.000000" stroke="none" 
	d="
M286.932495,287.727356 
	C286.133301,286.459442 285.266815,284.901886 284.783142,283.233337 
	C284.328064,281.663422 284.276764,279.976440 283.685974,278.240051 
	C284.773865,275.863373 286.223541,273.587585 287.730652,271.221649 
	C285.575867,276.638763 285.136658,281.957245 286.932495,287.727356 
z"/>
<path fill="#EEF7F7" opacity="1.000000" stroke="none" 
	d="
M348.737549,353.218994 
	C353.246277,353.704712 350.460358,357.796906 351.170258,360.215271 
	C351.468506,361.231201 347.922668,363.375549 345.783356,365.014526 
	C346.621582,361.216309 347.800842,357.410492 348.737549,353.218994 
z"/>
<path fill="#606A6D" opacity="1.000000" stroke="none" 
	d="
M257.503723,366.902679 
	C257.207916,367.189911 256.967255,367.082581 256.848694,367.024994 
	C258.341003,364.893890 259.951843,362.820404 261.562714,360.746918 
	C262.919922,362.761139 264.277130,364.775391 265.903412,367.083862 
	C264.200836,367.809631 262.229156,368.241211 260.257507,368.672821 
	C260.155182,368.266266 260.052856,367.859741 259.950531,367.453217 
	C260.764893,366.848114 261.579285,366.243011 262.396942,365.635468 
	C262.210876,365.410004 261.962646,364.992004 261.877106,365.023010 
	C260.505646,365.519958 259.154968,366.074219 257.503723,366.902679 
z"/>
<path fill="#A7AFB2" opacity="1.000000" stroke="none" 
	d="
M460.283508,404.813416 
	C461.533234,403.662201 464.407135,405.691742 464.666779,402.321014 
	C466.771301,402.523254 468.875824,402.725464 471.285309,402.890839 
	C469.932159,405.956848 465.014008,406.943970 460.283508,404.813416 
z"/>
<path fill="#606A6D" opacity="1.000000" stroke="none" 
	d="
M335.820984,286.874573 
	C332.518677,287.560699 329.269226,287.967499 326.007294,288.196472 
	C324.217560,288.322113 322.406799,288.148010 320.234192,287.925323 
	C324.358795,286.697906 328.836060,285.552795 333.370331,284.717407 
	C334.068665,284.588715 335.029327,285.884186 335.820984,286.874573 
z"/>
<path fill="#F5FDFC" opacity="1.000000" stroke="none" 
	d="
M374.832458,302.953705 
	C375.292816,303.866272 376.127106,304.774078 376.138794,305.692322 
	C376.166565,307.874542 375.804901,310.061768 375.528717,313.014893 
	C374.267426,312.454529 372.659210,311.740021 370.690369,310.875244 
	C370.810608,309.400909 371.291534,308.076904 372.280334,306.387695 
	C373.469635,304.999573 374.151062,303.976654 374.832458,302.953705 
z"/>
<path fill="#F1F9FA" opacity="1.000000" stroke="none" 
	d="
M281.920624,417.805237 
	C279.802826,418.700745 277.834961,419.405365 274.446198,420.618805 
	C276.030640,417.009155 276.971985,414.864563 277.956055,412.360596 
	C279.237213,412.787567 280.475647,413.573883 281.858459,415.030609 
	C282.017944,416.177185 282.033020,416.653320 282.048126,417.129486 
	C282.048126,417.129486 282.070587,417.614410 281.920624,417.805237 
z"/>
<path fill="#606A6D" opacity="1.000000" stroke="none" 
	d="
M268.312500,367.383453 
	C269.817871,366.687561 271.627777,366.217590 273.771576,365.617859 
	C274.587830,366.443359 275.703979,367.646912 275.443756,368.311279 
	C274.265961,371.318268 272.699249,374.172913 270.987366,377.267487 
	C271.517548,374.424225 272.332916,371.395874 273.281586,367.872498 
	C271.685028,367.782440 270.151031,367.695923 268.312500,367.383453 
z"/>
<path fill="#2E3638" opacity="1.000000" stroke="none" 
	d="
M393.636749,359.065796 
	C391.626770,365.034882 389.276672,371.075928 386.608002,377.280212 
	C388.625183,371.341553 390.960907,365.239685 393.636749,359.065796 
z"/>
<path fill="#B9C4C7" opacity="1.000000" stroke="none" 
	d="
M518.616089,271.922668 
	C517.706604,271.279388 516.333496,270.226410 516.511963,269.684418 
	C517.464844,266.790985 518.805481,264.025299 520.347290,261.087769 
	C520.077820,264.556335 519.473145,268.152557 518.616089,271.922668 
z"/>
<path fill="#F1F9FA" opacity="1.000000" stroke="none" 
	d="
M333.996338,310.996979 
	C333.067963,309.648132 332.139587,308.299316 331.211212,306.950470 
	C332.945007,306.039368 334.678802,305.128265 336.710419,304.098572 
	C337.308838,304.718445 337.609436,305.456970 337.734100,306.827026 
	C337.047058,308.636414 336.535919,309.814270 335.686737,310.993347 
	C334.897919,310.995422 334.447113,310.996216 333.996338,310.996979 
z"/>
<path fill="#EEF7F7" opacity="1.000000" stroke="none" 
	d="
M268.690338,347.223572 
	C268.550079,348.137726 268.094269,348.928406 267.453064,350.040741 
	C265.963074,347.910461 264.727020,346.143250 263.067047,343.769928 
	C264.094482,342.932007 265.250031,341.989624 266.756958,341.004883 
	C267.530518,343.008362 267.952667,345.054230 268.690338,347.223572 
z"/>
<path fill="#F1F9FA" opacity="1.000000" stroke="none" 
	d="
M261.932678,400.845612 
	C264.876312,405.445221 263.348785,408.318268 258.104492,409.551331 
	C257.809540,408.786865 257.851715,408.357391 257.893860,407.927887 
	C258.653046,406.265472 259.412262,404.603088 260.538330,402.532227 
	C261.247681,401.697693 261.590179,401.271637 261.932678,400.845612 
z"/>
<path fill="#EEF7F7" opacity="1.000000" stroke="none" 
	d="
M295.003662,391.008545 
	C295.737976,389.850708 296.472260,388.692841 297.443420,387.229126 
	C299.083984,385.915894 300.487640,384.908478 301.891327,383.901093 
	C301.891327,383.901093 302.162872,384.145233 302.299194,384.266754 
	C300.222382,387.618469 298.009216,390.848663 295.425781,393.787079 
	C295.038208,392.666351 295.020935,391.837463 295.003662,391.008545 
z"/>
<path fill="#606A6D" opacity="1.000000" stroke="none" 
	d="
M384.506470,281.984680 
	C384.756683,282.624878 384.681183,283.354401 384.381897,284.697144 
	C383.696411,286.659790 383.234711,288.009247 382.489441,289.571838 
	C381.360474,291.109619 380.515137,292.434265 379.663574,293.781921 
	C379.657379,293.804932 379.653839,293.760590 379.653839,293.760590 
	C379.653839,293.760590 379.361603,293.934906 379.195068,293.969818 
	C380.745941,290.027832 382.463379,286.050934 384.506470,281.984680 
z"/>
<path fill="#EEF7F7" opacity="1.000000" stroke="none" 
	d="
M333.994507,311.369659 
	C334.447113,310.996216 334.897919,310.995422 336.043854,311.034180 
	C337.135345,312.024231 337.531677,312.974731 337.928040,313.925262 
	C337.928009,313.925262 337.998779,314.000000 337.659332,314.006775 
	C337.259125,314.367920 337.198334,314.722321 337.137573,315.076721 
	C336.813232,315.840332 336.488892,316.603973 336.084900,317.682678 
	C335.247803,318.048279 334.490356,318.098785 333.365692,317.723083 
	C332.997345,316.862946 332.996216,316.429047 332.995117,315.995117 
	C333.327637,314.577515 333.660156,313.159943 333.994507,311.369659 
z"/>
<path fill="#B9C4C7" opacity="1.000000" stroke="none" 
	d="
M346.289551,413.882355 
	C347.419373,409.756622 347.554565,404.386658 354.552063,404.937317 
	C350.513824,406.372375 347.837738,409.426331 346.289551,413.882355 
z"/>
<path fill="#F1F9FA" opacity="1.000000" stroke="none" 
	d="
M269.745789,381.933746 
	C270.294708,382.938904 271.409729,384.034607 271.266632,384.929077 
	C271.020721,386.466339 269.990143,387.878113 268.725281,389.658203 
	C267.604218,389.930145 267.046844,389.886414 266.489441,389.842651 
	C266.676636,388.823608 266.863831,387.804596 267.260559,386.163177 
	C268.228638,384.338440 268.987213,383.136108 269.745789,381.933746 
z"/>
<path fill="#B9C4C7" opacity="1.000000" stroke="none" 
	d="
M355.239990,404.850769 
	C354.817810,404.126282 354.668030,403.300964 354.323730,402.231995 
	C354.695312,400.540802 355.261383,399.093292 356.019470,397.361633 
	C356.937256,397.042419 357.662994,397.007324 358.749817,397.032349 
	C357.911407,399.644958 356.711914,402.197418 355.239990,404.850769 
z"/>
<path fill="#2E3638" opacity="1.000000" stroke="none" 
	d="
M400.720093,345.930481 
	C399.081146,349.631714 397.442169,353.332947 395.466309,357.126770 
	C395.972809,354.149231 396.816193,351.079102 397.663574,347.756653 
	C397.667542,347.504333 397.664307,347.944092 397.988831,347.867737 
	C399.115601,347.171051 399.917847,346.550751 400.720093,345.930481 
z"/>
<path fill="#606A6D" opacity="1.000000" stroke="none" 
	d="
M338.250336,313.887939 
	C337.531677,312.974731 337.135345,312.024231 336.381897,311.032898 
	C336.535919,309.814270 337.047058,308.636414 337.831360,307.225586 
	C341.245239,309.074890 340.627899,311.413666 338.250336,313.887939 
z"/>
<path fill="#EEF7F7" opacity="1.000000" stroke="none" 
	d="
M282.342377,416.964447 
	C282.033020,416.653320 282.017944,416.177185 282.003326,415.343384 
	C283.658112,412.896820 285.312408,410.807861 286.976044,408.362091 
	C287.374054,407.989990 287.762726,407.974701 288.442535,407.942596 
	C286.701294,410.883698 284.668945,413.841553 282.342377,416.964447 
z"/>
<path fill="#606A6D" opacity="1.000000" stroke="none" 
	d="
M367.036560,317.644531 
	C365.843536,320.165222 364.674042,322.330322 363.288391,324.749329 
	C364.390778,321.337494 365.709320,317.671783 367.354248,313.912811 
	C367.473755,314.976044 367.266876,316.132477 367.036560,317.644531 
z"/>
<path fill="#606A6D" opacity="1.000000" stroke="none" 
	d="
M255.416779,415.941132 
	C254.683533,419.082458 253.619751,422.311615 252.294281,425.771027 
	C253.050476,422.677155 254.068344,419.353058 255.416779,415.941132 
z"/>
<path fill="#F1F9FA" opacity="1.000000" stroke="none" 
	d="
M294.658569,391.064514 
	C295.020935,391.837463 295.038208,392.666351 295.091309,393.908447 
	C295.127136,394.321625 295.139587,394.781891 294.611633,394.974854 
	C293.052979,396.446136 292.022217,397.724426 290.991455,399.002716 
	C292.098785,396.375305 293.206116,393.747894 294.658569,391.064514 
z"/>
<path fill="#606A6D" opacity="1.000000" stroke="none" 
	d="
M303.032104,315.672485 
	C302.028198,317.708221 301.051849,319.416565 299.775391,321.249878 
	C300.684235,318.559113 301.893219,315.743378 303.444458,312.891968 
	C303.544342,313.685883 303.301971,314.515503 303.032104,315.672485 
z"/>
<path fill="#F1F9FA" opacity="1.000000" stroke="none" 
	d="
M307.622742,306.104858 
	C310.580627,308.351898 310.096619,309.646454 305.272644,311.991150 
	C304.859802,311.831848 304.820679,311.667358 305.052307,311.056213 
	C305.503204,310.043365 305.683258,309.477203 305.863342,308.911041 
	C306.358704,308.021088 306.854034,307.131134 307.622742,306.104858 
z"/>
<path fill="#A7AFB2" opacity="1.000000" stroke="none" 
	d="
M228.068054,416.534943 
	C228.797760,415.398773 229.631424,414.586884 230.765106,413.756897 
	C230.543610,415.708862 230.022110,417.678864 229.511398,419.608063 
	C229.310349,419.608063 229.276581,419.608063 229.242813,419.608063 
	C229.333969,419.477997 229.533661,419.290558 229.499832,419.226624 
	C229.076889,418.427063 228.620102,417.645416 228.068054,416.534943 
z"/>
<path fill="#A7AFB2" opacity="1.000000" stroke="none" 
	d="
M218.231262,420.587280 
	C219.686951,420.135254 221.505997,419.600586 223.738312,419.084503 
	C223.493942,424.307068 220.498184,420.240753 218.231262,420.587280 
z"/>
<path fill="#606A6D" opacity="1.000000" stroke="none" 
	d="
M288.560669,342.059601 
	C287.863800,346.026764 284.347748,344.503571 281.342865,344.991394 
	C283.348724,343.979767 285.767273,343.071167 288.560669,342.059601 
z"/>
<path fill="#B9C4C7" opacity="1.000000" stroke="none" 
	d="
M344.401489,414.314758 
	C344.785400,413.931396 345.100281,413.844513 345.651978,413.841980 
	C345.103271,415.260162 344.317719,416.593994 343.532196,417.927795 
	C343.360962,417.863251 343.189728,417.798676 343.018494,417.734100 
	C343.456482,416.693146 343.894470,415.652191 344.401489,414.314758 
z"/>
<path fill="#B9C4C7" opacity="1.000000" stroke="none" 
	d="
M390.048248,348.133942 
	C390.778137,348.031342 391.507996,347.928772 392.905426,347.826538 
	C393.767029,347.918365 393.961060,348.009796 394.155121,348.101257 
	C391.723419,349.047058 389.291718,349.992859 386.434631,350.725494 
	C386.086823,350.050934 386.164398,349.589508 386.242004,349.128113 
	C386.631134,349.079590 387.020264,349.031067 387.983398,348.921570 
	C389.054321,348.618378 389.551300,348.376160 390.048248,348.133942 
z"/>
<path fill="#606A6D" opacity="1.000000" stroke="none" 
	d="
M261.953003,400.489075 
	C261.590179,401.271637 261.247681,401.697693 260.639832,402.202820 
	C261.369873,399.574310 262.365234,396.866730 263.697113,394.091003 
	C263.346863,396.059448 262.660095,398.095978 261.953003,400.489075 
z"/>
<path fill="#EEF7F7" opacity="1.000000" stroke="none" 
	d="
M290.981934,399.292786 
	C292.022217,397.724426 293.052979,396.446136 294.408203,395.082642 
	C294.587891,397.386078 295.922485,400.559906 291.288757,400.755310 
	C290.929169,400.355652 290.950775,399.969269 290.981934,399.292786 
z"/>
<path fill="#606A6D" opacity="1.000000" stroke="none" 
	d="
M316.686584,295.446045 
	C316.303314,295.632843 315.920044,295.819641 315.224731,295.936127 
	C316.031036,293.605621 317.149353,291.345459 318.601868,289.019897 
	C318.556000,290.042023 318.175934,291.129517 317.570496,292.748108 
	C317.125641,294.001495 316.906128,294.723785 316.686584,295.446045 
z"/>
<path fill="#B9C4C7" opacity="1.000000" stroke="none" 
	d="
M378.457642,367.109650 
	C378.796783,365.482544 379.356537,363.607056 379.966187,361.358948 
	C380.016052,360.986328 379.999908,361.001404 380.241760,360.911804 
	C380.867737,360.453308 381.251862,360.084442 381.635986,359.715576 
	C381.635986,359.715576 381.925568,359.948120 382.069946,360.064880 
	C381.035675,362.408203 379.856964,364.634735 378.457642,367.109650 
z"/>
<path fill="#606A6D" opacity="1.000000" stroke="none" 
	d="
M310.880066,298.234558 
	C310.371613,300.414124 309.509216,302.587158 308.319336,304.875610 
	C308.836578,302.736725 309.681335,300.482361 310.880066,298.234558 
z"/>
<path fill="#606A6D" opacity="1.000000" stroke="none" 
	d="
M269.782837,381.576050 
	C268.987213,383.136108 268.228638,384.338440 267.267944,385.772278 
	C267.742676,384.009979 268.419525,382.016205 269.397278,379.926025 
	C269.738739,380.292542 269.779327,380.755463 269.782837,381.576050 
z"/>
<path fill="#A7AFB2" opacity="1.000000" stroke="none" 
	d="
M476.651855,390.234558 
	C477.269104,388.286316 478.167358,386.156433 479.405029,383.960999 
	C478.807251,385.947998 477.870087,388.000458 476.651855,390.234558 
z"/>
<path fill="#A7AFB2" opacity="1.000000" stroke="none" 
	d="
M446.076660,398.278870 
	C447.227295,398.602417 448.320831,399.260834 449.744568,399.984436 
	C447.920929,402.222687 447.920929,402.222687 446.076660,398.278870 
z"/>
<path fill="#EEF7F7" opacity="1.000000" stroke="none" 
	d="
M290.087128,405.644714 
	C289.599091,404.564240 289.297760,403.160736 288.996399,401.376190 
	C289.361267,400.967560 289.726227,400.940033 290.365021,400.894348 
	C290.517212,402.358032 290.395538,403.839874 290.087128,405.644714 
z"/>
<path fill="#EEF7F7" opacity="1.000000" stroke="none" 
	d="
M378.210205,433.752502 
	C378.432007,432.675507 378.870148,431.355835 379.662598,430.021606 
	C379.486786,431.174591 378.956665,432.342194 378.210205,433.752502 
z"/>
<path fill="#EEF7F7" opacity="1.000000" stroke="none" 
	d="
M394.475128,348.048340 
	C393.961060,348.009796 393.767029,347.918365 393.263092,347.738220 
	C393.419159,346.791626 393.885071,345.933777 394.924805,345.050842 
	C395.639923,345.116150 395.781219,345.206543 395.882080,345.542450 
	C395.845581,346.282990 395.849548,346.778046 395.853516,347.273071 
	C395.500702,347.513855 395.147919,347.754639 394.475128,348.048340 
z"/>
<path fill="#606A6D" opacity="1.000000" stroke="none" 
	d="
M374.863403,302.589203 
	C374.151062,303.976654 373.469635,304.999573 372.482239,306.096436 
	C372.805634,304.469696 373.435028,302.769073 374.379028,300.951813 
	C374.760529,301.298340 374.827423,301.761536 374.863403,302.589203 
z"/>
<path fill="#EEF7F7" opacity="1.000000" stroke="none" 
	d="
M385.892273,349.110840 
	C386.164398,349.589508 386.086823,350.050934 386.071045,350.858704 
	C386.132812,351.205109 386.107971,351.617340 385.996704,351.791260 
	C385.048431,351.843567 384.211487,351.722015 383.174438,351.342529 
	C383.830444,350.420959 384.686523,349.757263 385.892273,349.110840 
z"/>
<path fill="#606A6D" opacity="1.000000" stroke="none" 
	d="
M296.534821,326.979797 
	C296.860962,327.268921 296.853180,327.625885 296.813477,328.255066 
	C296.186493,329.415710 295.591400,330.304077 294.682770,331.264648 
	C294.979797,329.907074 295.590332,328.477356 296.534821,326.979797 
z"/>
<path fill="#606A6D" opacity="1.000000" stroke="none" 
	d="
M340.212036,295.762390 
	C339.794922,294.831940 339.578705,293.665649 339.409180,292.135193 
	C339.774841,293.022858 340.093872,294.274689 340.212036,295.762390 
z"/>
<path fill="#606A6D" opacity="1.000000" stroke="none" 
	d="
M392.466431,268.933472 
	C392.164001,270.278503 391.533417,271.693146 390.567322,273.172241 
	C390.867279,271.825470 391.502777,270.414276 392.466431,268.933472 
z"/>
<path fill="#EEF7F7" opacity="1.000000" stroke="none" 
	d="
M395.089050,265.773865 
	C397.319427,267.855164 396.269653,268.754425 393.467407,269.040955 
	C393.694122,268.016388 394.267578,266.978912 395.089050,265.773865 
z"/>
<path fill="#A7AFB2" opacity="1.000000" stroke="none" 
	d="
M270.502563,264.889374 
	C270.211121,266.160248 269.634308,267.587372 268.723877,269.082611 
	C268.999237,267.782379 269.608215,266.413971 270.502563,264.889374 
z"/>
<path fill="#EEF7F7" opacity="1.000000" stroke="none" 
	d="
M266.321838,389.976501 
	C267.046844,389.886414 267.604218,389.930145 268.580811,389.986938 
	C268.270447,390.664520 267.540894,391.329010 266.446106,391.723206 
	C266.017242,391.277496 265.953583,391.102142 265.889954,390.926758 
	C265.980103,390.655304 266.068176,390.383179 266.321838,389.976501 
z"/>
<path fill="#EEF7F7" opacity="1.000000" stroke="none" 
	d="
M369.327545,389.797607 
	C369.229706,388.705688 369.390747,387.374298 369.909058,386.096527 
	C370.039703,387.286163 369.813049,388.422150 369.327545,389.797607 
z"/>
<path fill="#606A6D" opacity="1.000000" stroke="none" 
	d="
M293.641357,332.059326 
	C293.632782,333.013428 293.286133,334.040405 292.618561,335.174377 
	C292.632843,334.231659 292.968048,333.181946 293.641357,332.059326 
z"/>
<path fill="#F1F9FA" opacity="1.000000" stroke="none" 
	d="
M290.753113,339.182800 
	C291.520813,339.769257 292.022675,340.495300 292.524567,341.221375 
	C291.838593,341.211792 291.152649,341.202179 290.192810,341.078186 
	C290.108429,340.416656 290.297882,339.869537 290.753113,339.182800 
z"/>
<path fill="#B9C4C7" opacity="1.000000" stroke="none" 
	d="
M396.087585,347.364807 
	C395.849548,346.778046 395.845581,346.282990 396.119690,345.515900 
	C396.397736,345.243835 396.875031,345.213898 396.958008,345.499695 
	C397.248718,346.505035 397.456512,347.224579 397.664307,347.944092 
	C397.664307,347.944092 397.667542,347.504333 397.477722,347.382874 
	C396.965790,347.326447 396.643707,347.391510 396.087585,347.364807 
z"/>
<path fill="#EEF7F7" opacity="1.000000" stroke="none" 
	d="
M272.316101,347.973419 
	C271.713531,347.924225 271.462769,347.758881 271.150574,347.320557 
	C271.812836,346.779114 272.585236,346.436768 273.682617,346.140076 
	C273.544800,346.767548 273.081970,347.349335 272.316101,347.973419 
z"/>
<path fill="#A7AFB2" opacity="1.000000" stroke="none" 
	d="
M380.368164,429.920044 
	C380.110229,429.701843 380.051941,429.230835 380.006897,428.403259 
	C380.473938,427.706726 380.927734,427.366730 381.664673,426.997742 
	C381.487793,427.868256 381.027802,428.767731 380.368164,429.920044 
z"/>
<path fill="#606A6D" opacity="1.000000" stroke="none" 
	d="
M257.652039,407.981750 
	C257.851715,408.357391 257.809540,408.786865 257.735321,409.545105 
	C257.703247,409.873871 257.378784,410.002594 257.204224,410.002808 
	C257.156525,409.347198 257.283356,408.691406 257.652039,407.981750 
z"/>
<path fill="#A7AFB2" opacity="1.000000" stroke="none" 
	d="
M455.300537,403.205658 
	C455.837799,403.435333 456.400360,403.984192 456.928345,404.853210 
	C456.371155,404.623810 455.848480,404.074310 455.300537,403.205658 
z"/>
<path fill="#606A6D" opacity="1.000000" stroke="none" 
	d="
M305.613831,308.946320 
	C305.683258,309.477203 305.503204,310.043365 305.080261,310.804138 
	C305.013000,310.326355 305.188660,309.653961 305.613831,308.946320 
z"/>
<path fill="#606A6D" opacity="1.000000" stroke="none" 
	d="
M278.824799,344.849030 
	C278.459900,345.275665 277.917938,345.540619 277.087036,345.706421 
	C277.414612,345.300629 278.031189,344.993988 278.824799,344.849030 
z"/>
<path fill="#606A6D" opacity="1.000000" stroke="none" 
	d="
M361.697357,328.079529 
	C361.568451,328.688599 361.149231,329.388824 360.401794,330.089661 
	C360.518036,329.450409 360.962524,328.810547 361.697357,328.079529 
z"/>
<path fill="#B9C4C7" opacity="1.000000" stroke="none" 
	d="
M361.351257,392.027527 
	C361.400146,391.439056 361.712250,390.726746 362.334351,389.958160 
	C362.301086,390.569122 361.957794,391.236389 361.351257,392.027527 
z"/>
<path fill="#606A6D" opacity="1.000000" stroke="none" 
	d="
M265.600861,391.058594 
	C265.953583,391.102142 266.017242,391.277496 266.103516,391.731812 
	C265.741028,392.411346 265.355927,392.811951 264.704987,393.294800 
	C264.729980,392.648193 265.020874,391.919342 265.600861,391.058594 
z"/>
<path fill="#B9C4C7" opacity="1.000000" stroke="none" 
	d="
M359.377716,397.049255 
	C359.336029,396.412750 359.577209,395.714447 360.106567,394.940430 
	C360.149994,395.572296 359.905304,396.279846 359.377716,397.049255 
z"/>
<path fill="#A7AFB2" opacity="1.000000" stroke="none" 
	d="
M452.346802,400.147003 
	C452.875092,400.343689 453.437408,400.843292 454.010803,401.650665 
	C453.474854,401.455627 452.927826,400.952759 452.346802,400.147003 
z"/>
<path fill="#F1F9FA" opacity="1.000000" stroke="none" 
	d="
M198.419907,431.536713 
	C198.232559,432.497620 197.862946,433.224701 196.915619,435.088318 
	C197.080978,432.929657 197.148392,432.049713 197.530975,431.013672 
	C197.976654,431.005981 198.107147,431.154419 198.419907,431.536713 
z"/>
<path fill="#A7AFB2" opacity="1.000000" stroke="none" 
	d="
M233.115021,409.817871 
	C233.029510,409.665955 233.066086,409.341370 233.361816,408.953888 
	C233.496292,409.144073 233.368362,409.395447 233.115021,409.817871 
z"/>
<path fill="#EEF7F7" opacity="1.000000" stroke="none" 
	d="
M370.373444,386.151917 
	C370.235596,385.918121 370.370544,385.560791 370.779968,385.106750 
	C370.918427,385.349487 370.782349,385.688934 370.373444,386.151917 
z"/>
<path fill="#606A6D" opacity="1.000000" stroke="none" 
	d="
M337.291809,314.898926 
	C337.198334,314.722321 337.259125,314.367920 337.622650,313.970245 
	C337.854126,314.245117 337.694336,314.509827 337.291809,314.898926 
z"/>
<path fill="#A7AFB2" opacity="1.000000" stroke="none" 
	d="
M271.803741,263.090881 
	C271.896118,263.247620 271.874084,263.598389 271.571381,264.020813 
	C271.451538,263.837067 271.584412,263.567902 271.803741,263.090881 
z"/>
<path fill="#2E3638" opacity="1.000000" stroke="none" 
	d="
M402.518402,336.391968 
	C401.858826,335.943024 400.584991,335.184204 400.631683,335.091583 
	C401.347137,333.673431 401.929199,331.766602 403.150146,331.118469 
	C405.260620,329.998108 407.792480,329.671539 410.902710,328.800476 
	C408.308197,333.610596 406.049744,337.797729 403.415192,341.765106 
	C402.529694,340.573730 402.020294,339.602081 401.510895,338.630463 
	C401.972076,338.340485 402.433258,338.050507 403.395142,337.470276 
	C404.153656,336.890808 404.411499,336.601654 404.669312,336.312500 
	C403.952332,336.338989 403.235382,336.365479 402.518402,336.391968 
z"/>
<path fill="#000400" opacity="1.000000" stroke="none" 
	d="
M401.184906,338.725586 
	C402.020294,339.602081 402.529694,340.573730 403.076935,341.897217 
	C402.444031,343.306641 401.773254,344.364197 400.911316,345.676086 
	C399.917847,346.550751 399.115601,347.171051 397.988831,347.867737 
	C397.456512,347.224579 397.248718,346.505035 396.965546,345.206726 
	C396.663788,343.891785 396.437408,343.155640 396.211029,342.419464 
	C397.760345,341.219910 399.309631,340.020325 401.184906,338.725586 
z"/>
<path fill="#2E3638" opacity="1.000000" stroke="none" 
	d="
M396.031311,342.333679 
	C396.437408,343.155640 396.663788,343.891785 396.882568,344.920929 
	C396.875031,345.213898 396.397736,345.243835 396.160126,345.270386 
	C395.781219,345.206543 395.639923,345.116150 395.247345,345.013489 
	C395.086456,344.303894 395.176910,343.606628 395.361298,342.558960 
	C395.455261,342.208588 395.851593,342.247864 396.031311,342.333679 
z"/>
<path fill="#F5FDFC" opacity="1.000000" stroke="none" 
	d="
M395.217834,324.850433 
	C394.853668,324.432556 394.707367,323.865082 394.780518,323.148804 
	C395.145203,323.566956 395.290436,324.133911 395.217834,324.850433 
z"/>
<path fill="#F1F9FA" opacity="1.000000" stroke="none" 
	d="
M301.931427,383.542114 
	C300.487640,384.908478 299.083984,385.915894 297.343201,386.961639 
	C294.627075,386.731689 292.248016,386.463348 289.720490,386.178253 
	C289.691711,386.245575 290.092773,385.307587 290.987335,384.013062 
	C291.650818,383.104431 291.820801,382.552368 291.990784,382.000275 
	C291.990784,382.000275 291.999115,381.998779 292.313477,381.954498 
	C295.166351,380.458496 294.894562,378.792297 293.002441,377.002411 
	C293.439667,376.040222 293.876892,375.078003 294.819702,374.268616 
	C295.721252,374.368134 296.117157,374.314789 296.513092,374.261475 
	C296.009552,373.841400 295.505981,373.421295 295.002441,373.001221 
	C296.002106,370.933990 297.001740,368.866760 298.343384,366.341248 
	C299.123596,364.922394 299.561798,363.961792 300.000000,363.001221 
	C302.744995,363.339447 305.490021,363.677643 308.618103,364.008545 
	C306.970917,368.365234 304.788727,372.667694 302.983002,377.122742 
	C302.232147,378.975189 302.284454,381.153168 301.931427,383.542114 
z"/>
<path fill="#F5FDFC" opacity="1.000000" stroke="none" 
	d="
M382.773041,289.358704 
	C383.234711,288.009247 383.696411,286.659790 384.342010,285.065430 
	C387.995361,288.893524 386.358978,294.700867 380.608124,297.681335 
	C380.339478,296.569550 380.091553,295.543640 379.748749,294.139160 
	C379.653839,293.760590 379.657379,293.804932 380.075012,293.819672 
	C381.252747,292.342499 382.012909,290.850616 382.773041,289.358704 
z"/>
<path fill="#F1F9FA" opacity="1.000000" stroke="none" 
	d="
M330.785004,319.536102 
	C330.401489,320.561096 330.017975,321.586121 329.004578,322.817444 
	C326.913177,323.350647 325.451721,323.677551 323.990234,324.004425 
	C324.868561,322.179077 325.746918,320.353699 327.219910,318.322754 
	C328.804718,318.590149 329.794861,319.063141 330.785004,319.536102 
z"/>
<path fill="#F1F9FA" opacity="1.000000" stroke="none" 
	d="
M326.641083,327.218109 
	C326.497101,328.567902 326.353119,329.917725 325.861176,331.733582 
	C324.340118,332.466827 323.167023,332.734009 321.993896,333.001221 
	C322.482269,330.805542 322.970673,328.609833 324.059204,326.359039 
	C325.319916,326.608643 325.980499,326.913391 326.641083,327.218109 
z"/>
<path fill="#B9C4C7" opacity="1.000000" stroke="none" 
	d="
M372.967590,359.573944 
	C377.477570,358.910492 377.376770,361.430023 376.670929,364.622314 
	C375.249451,364.407257 374.014099,364.220367 372.403564,363.987366 
	C372.283600,362.585052 372.538788,361.228882 372.967590,359.573944 
z"/>
<path fill="#EEF7F7" opacity="1.000000" stroke="none" 
	d="
M322.000610,333.383972 
	C323.167023,332.734009 324.340118,332.466827 325.854126,332.059326 
	C326.836578,333.033234 327.478119,334.147461 328.363953,335.519531 
	C326.175537,335.870026 322.772552,339.148407 322.000610,333.383972 
z"/>
<path fill="#EEF7F7" opacity="1.000000" stroke="none" 
	d="
M326.877960,327.029114 
	C325.980499,326.913391 325.319916,326.608643 324.329041,326.151978 
	C323.996399,325.556488 323.994019,325.113007 323.990906,324.336975 
	C325.451721,323.677551 326.913177,323.350647 328.758606,323.039612 
	C328.466675,324.317047 327.790771,325.578583 326.877960,327.029114 
z"/>
<path fill="#F1F9FA" opacity="1.000000" stroke="none" 
	d="
M316.878265,295.762329 
	C316.906128,294.723785 317.125641,294.001495 317.576477,293.105408 
	C318.769043,293.506683 319.730316,294.081757 320.691589,294.656830 
	C320.668274,295.130768 320.644989,295.604706 320.621674,296.078644 
	C319.437775,296.078644 318.253845,296.078644 316.878265,295.762329 
z"/>
<path fill="#EEF7F7" opacity="1.000000" stroke="none" 
	d="
M299.648590,363.007202 
	C299.561798,363.961792 299.123596,364.922394 298.343933,365.940857 
	C298.434021,365.003571 298.865601,364.008362 299.648590,363.007202 
z"/>
<path fill="#EEF7F7" opacity="1.000000" stroke="none" 
	d="
M330.771851,319.515930 
	C329.794861,319.063141 328.804718,318.590149 327.409119,318.057983 
	C327.893707,317.166809 328.783752,316.334839 329.860535,316.183838 
	C330.292633,317.728668 330.537964,318.592499 330.783295,319.456299 
	C330.783295,319.456299 330.758698,319.495789 330.771851,319.515930 
z"/>
<path fill="#F1F9FA" opacity="1.000000" stroke="none" 
	d="
M291.995148,381.004883 
	C291.390717,380.457428 290.786285,379.909973 290.181854,379.362518 
	C290.882080,378.913574 291.582336,378.464630 292.613953,378.326080 
	C292.628632,379.425934 292.311890,380.215424 291.995148,381.004883 
z"/>
<path fill="#EEF7F7" opacity="1.000000" stroke="none" 
	d="
M291.995483,381.251160 
	C292.311890,380.215424 292.628632,379.425934 292.971893,378.317017 
	C292.998413,377.997559 292.999725,377.499939 293.001099,377.251160 
	C294.894562,378.792297 295.166351,380.458496 292.312073,381.950134 
	C291.996338,381.990021 291.995789,381.497437 291.995483,381.251160 
z"/>
<path fill="#F1F9FA" opacity="1.000000" stroke="none" 
	d="
M331.012238,319.327515 
	C330.537964,318.592499 330.292633,317.728668 330.073029,316.410187 
	C330.822205,315.969910 331.545654,315.984314 332.632111,315.996887 
	C332.996216,316.429047 332.997345,316.862946 332.998291,317.622253 
	C332.412476,318.364624 331.826813,318.781647 331.012238,319.327515 
z"/>
<path fill="#EEF7F7" opacity="1.000000" stroke="none" 
	d="
M343.067474,334.262146 
	C343.692871,333.755432 344.380035,333.612305 345.420166,333.469238 
	C346.082764,334.098969 346.392426,334.728638 346.847992,335.677307 
	C345.705658,335.539490 344.417450,335.082611 343.067474,334.262146 
z"/>
<path fill="#B9C4C7" opacity="1.000000" stroke="none" 
	d="
M373.137451,366.381409 
	C373.976349,366.391632 374.771729,366.724945 375.567078,367.058289 
	C374.941040,367.401855 374.315002,367.745422 373.334167,368.046509 
	C373.017548,367.570892 373.055725,367.137726 373.137451,366.381409 
z"/>
<path fill="#EEF7F7" opacity="1.000000" stroke="none" 
	d="
M282.741699,399.209656 
	C282.844696,399.911591 282.690613,400.824371 282.265198,401.868347 
	C282.157471,401.139832 282.321045,400.280151 282.741699,399.209656 
z"/>
<path fill="#EEF7F7" opacity="1.000000" stroke="none" 
	d="
M389.892181,347.894470 
	C389.551300,348.376160 389.054321,348.618378 388.268738,348.849426 
	C388.565460,348.443878 389.150787,348.049469 389.892181,347.894470 
z"/>
<path fill="#F1F9FA" opacity="1.000000" stroke="none" 
	d="
M335.625946,300.551941 
	C336.057800,300.663971 336.319641,300.938477 336.581482,301.212952 
	C336.467743,301.321136 336.260864,301.529663 336.253693,301.522980 
	C335.976410,301.265717 335.717377,300.988739 335.625946,300.551941 
z"/>
<path fill="#F1F9FA" opacity="1.000000" stroke="none" 
	d="
M325.447998,314.625824 
	C325.336060,315.057281 325.061707,315.318817 324.787354,315.580353 
	C324.679138,315.466766 324.570953,315.353180 324.462738,315.239594 
	C324.737030,314.978363 325.011322,314.717163 325.447998,314.625824 
z"/>
<path fill="#EEF7F7" opacity="1.000000" stroke="none" 
	d="
M295.000732,373.250305 
	C295.505981,373.421295 296.009552,373.841400 296.513092,374.261475 
	C296.117157,374.314789 295.721252,374.368134 295.161011,374.209503 
	C294.996735,373.997559 294.999054,373.499390 295.000732,373.250305 
z"/>
<path fill="#EEF7F7" opacity="1.000000" stroke="none" 
	d="
M291.750702,382.171814 
	C291.820801,382.552368 291.650818,383.104431 291.240417,383.828247 
	C291.170227,383.447784 291.340424,382.895599 291.750702,382.171814 
z"/>
<path fill="#000400" opacity="1.000000" stroke="none" 
	d="
M336.722412,402.681824 
	C336.768250,401.960785 337.131104,401.520569 337.724640,400.800476 
	C337.800629,401.753845 337.846710,402.332458 337.800720,403.196472 
	C337.485565,403.308838 337.262482,403.135773 336.722412,402.681824 
z"/>
<path fill="#EEF7F7" opacity="1.000000" stroke="none" 
	d="
M393.013367,282.678528 
	C392.825226,282.005615 392.912933,281.367035 393.000671,280.728485 
	C393.408630,280.815643 393.816620,280.902802 394.224579,280.989929 
	C393.912811,281.564240 393.601044,282.138580 393.013367,282.678528 
z"/>
<path fill="#000400" opacity="1.000000" stroke="none" 
	d="
M330.180756,333.198120 
	C330.014130,333.272797 329.634583,333.133301 329.384766,332.789368 
	C329.665588,332.717896 329.816711,332.850922 330.180756,333.198120 
z"/>
<path fill="#F1F9FA" opacity="1.000000" stroke="none" 
	d="
M275.963440,266.953064 
	C276.052460,266.661133 276.243042,266.472961 276.433655,266.284790 
	C276.487701,266.519135 276.541748,266.753510 276.434143,267.123901 
	C276.272491,267.259979 276.065033,267.056824 275.963440,266.953064 
z"/>
<path fill="#000400" opacity="1.000000" stroke="none" 
	d="
M251.762299,378.677002 
	C251.491394,378.719543 251.385635,378.619965 251.279892,378.520386 
	C251.495758,378.525208 251.711609,378.530029 251.762299,378.677002 
z"/>
<path fill="#EEF7F7" opacity="1.000000" stroke="none" 
	d="
M381.667786,359.423492 
	C381.251862,360.084442 380.867737,360.453308 380.235474,360.920654 
	C380.244873,360.153687 380.502411,359.288239 380.759949,358.422821 
	C381.073151,358.658997 381.386353,358.895203 381.667786,359.423492 
z"/>
<path fill="#EEF7F7" opacity="1.000000" stroke="none" 
	d="
M382.489441,289.571838 
	C382.012909,290.850616 381.252747,292.342499 380.081177,293.796631 
	C380.515137,292.434265 381.360474,291.109619 382.489441,289.571838 
z"/>
<path fill="#EEF7F7" opacity="1.000000" stroke="none" 
	d="
M402.714691,336.642822 
	C403.235382,336.365479 403.952332,336.338989 404.669312,336.312500 
	C404.411499,336.601654 404.153656,336.890808 403.608368,337.280609 
	C403.184265,337.218719 403.047607,337.056183 402.714691,336.642822 
z"/>
</svg>